<svg style="display:none">
	<symbol id="Logo" viewBox="0 0 126 16" fill="none" xmlns="http://www.w3.org/2000/svg"><path d="M0.459999 0.999999H10.02V2.98H2.84V6.92H8.22V8.9H2.84V15H0.459999V0.999999Z" fill="#161616"/><path d="M23.6177 2.98H22.8977L18.6977 15H16.2577L21.2177 0.999999H25.2577L30.2377 15H27.7977L23.6177 2.98ZM18.9777 9.62H27.1377V11.58H18.9777V9.62Z" fill="#161616"/><path d="M40.435 11.16C40.515 11.5333 40.6683 11.8733 40.895 12.18C41.135 12.4733 41.4483 12.7067 41.835 12.88C42.235 13.0533 42.7083 13.14 43.255 13.14C44.095 13.14 44.7217 12.9467 45.135 12.56C45.5483 12.16 45.755 11.6933 45.755 11.16C45.755 10.72 45.6217 10.3533 45.355 10.06C45.1017 9.76667 44.7417 9.52 44.275 9.32C43.8083 9.10667 43.275 8.90667 42.675 8.72C42.1283 8.56 41.6017 8.39333 41.095 8.22C40.5883 8.03333 40.1283 7.80667 39.715 7.54C39.315 7.26 38.995 6.90667 38.755 6.48C38.515 6.04 38.4017 5.49333 38.415 4.84C38.415 3.98667 38.615 3.26667 39.015 2.68C39.415 2.08 39.975 1.62667 40.695 1.32C41.415 1.01333 42.2417 0.86 43.175 0.86C43.9617 0.86 44.6683 0.973333 45.295 1.2C45.935 1.41333 46.475 1.73333 46.915 2.16C47.355 2.57333 47.6817 3.08667 47.895 3.7L45.715 4.42C45.635 4.12667 45.475 3.86667 45.235 3.64C44.995 3.4 44.695 3.21333 44.335 3.08C43.9883 2.94667 43.6083 2.87333 43.195 2.86C42.7417 2.84667 42.335 2.91333 41.975 3.06C41.6283 3.20667 41.3483 3.42 41.135 3.7C40.9217 3.96667 40.815 4.28 40.815 4.64C40.815 5.05333 40.935 5.38 41.175 5.62C41.415 5.84667 41.7283 6.04 42.115 6.2C42.515 6.34667 42.955 6.5 43.435 6.66C43.995 6.82 44.5483 7.00667 45.095 7.22C45.655 7.42 46.1617 7.68 46.615 8C47.0817 8.30667 47.455 8.7 47.735 9.18C48.015 9.66 48.155 10.26 48.155 10.98C48.155 11.7533 47.975 12.4533 47.615 13.08C47.2683 13.7067 46.735 14.2067 46.015 14.58C45.295 14.9533 44.4017 15.14 43.335 15.14C42.4683 15.14 41.675 15.0133 40.955 14.76C40.2483 14.4933 39.655 14.12 39.175 13.64C38.7083 13.1467 38.4017 12.5667 38.255 11.9L40.435 11.16Z" fill="#161616"/><path d="M57.4952 0.999999H59.8752V6.92H66.4752V0.999999H68.8352V15H66.4752V8.9H59.8752V15H57.4952V0.999999Z" fill="#161616"/><path d="M78.7725 0.999999H81.1525V15H78.7725V0.999999Z" fill="#161616"/><path d="M97.485 15.14C96.4983 15.14 95.5717 14.9667 94.705 14.62C93.8383 14.2733 93.0783 13.7867 92.425 13.16C91.785 12.52 91.2783 11.7667 90.905 10.9C90.545 10.02 90.365 9.05333 90.365 8C90.365 6.96 90.545 6.00667 90.905 5.14C91.2783 4.26 91.785 3.5 92.425 2.86C93.0783 2.22 93.8383 1.72667 94.705 1.38C95.5717 1.03333 96.4983 0.86 97.485 0.86C98.4717 0.86 99.3917 1.03333 100.245 1.38C101.112 1.72667 101.865 2.22 102.505 2.86C103.158 3.5 103.665 4.26 104.025 5.14C104.398 6.00667 104.585 6.96 104.585 8C104.585 9.05333 104.398 10.02 104.025 10.9C103.665 11.7667 103.158 12.52 102.505 13.16C101.865 13.7867 101.112 14.2733 100.245 14.62C99.3917 14.9667 98.4717 15.14 97.485 15.14ZM97.485 13.12C98.3917 13.12 99.1983 12.9133 99.905 12.5C100.612 12.0733 101.165 11.48 101.565 10.72C101.965 9.94667 102.165 9.04 102.165 8C102.165 6.94667 101.965 6.04 101.565 5.28C101.165 4.52 100.612 3.93333 99.905 3.52C99.1983 3.09333 98.3917 2.88 97.485 2.88C96.5783 2.88 95.7717 3.09333 95.065 3.52C94.3583 3.93333 93.7983 4.52 93.385 5.28C92.985 6.04 92.785 6.94667 92.785 8C92.785 9.04 92.985 9.94667 93.385 10.72C93.7983 11.48 94.3583 12.0733 95.065 12.5C95.7717 12.9133 96.5783 13.12 97.485 13.12Z" fill="#161616"/><path d="M125.089 0.999999V15H122.669L116.149 4.74V15H113.769V0.999999H116.209L122.729 11.22V0.999999H125.089Z" fill="#161616"/></symbol>
	<symbol id="ChevronLeft" xmlns="http://www.w3.org/2000/svg" fill="none" viewBox="0 0 24 24" stroke="currentColor"><path stroke-linecap="round" stroke-linejoin="round" d="M15.75 19.5L8.25 12l7.5-7.5" /></symbol>
	<symbol id="ChevronRight" xmlns="http://www.w3.org/2000/svg" fill="none" viewBox="0 0 24 24" stroke="currentColor"><path stroke-linecap="round" stroke-linejoin="round" d="M8.25 4.5l7.5 7.5-7.5 7.5" /></symbol>
	<symbol id="ChevronUp" xmlns="http://www.w3.org/2000/svg" fill="none" viewBox="0 0 24 24" stroke="currentColor"><path stroke-linecap="round" stroke-linejoin="round" d="M4.5 15.75l7.5-7.5 7.5 7.5" /></symbol>	
	<symbol id="ChevronDown" xmlns="http://www.w3.org/2000/svg" fill="none" viewBox="0 0 24 24" stroke="currentColor"><path stroke-linecap="round" stroke-linejoin="round" d="M19.5 8.25l-7.5 7.5-7.5-7.5" /></symbol>
	<symbol id="QuestionMarkCircle" xmlns="http://www.w3.org/2000/svg" fill="none" viewBox="0 0 24 24" stroke="currentColor"><path stroke-linecap="round" stroke-linejoin="round" d="M9.879 7.519c1.171-1.025 3.071-1.025 4.242 0 1.172 1.025 1.172 2.687 0 3.712-.203.179-.43.326-.67.442-.745.361-1.45.999-1.45 1.827v.75M21 12a9 9 0 11-18 0 9 9 0 0118 0zm-9 5.25h.008v.008H12v-.008z" /></symbol>
	<symbol id="User" width="20" height="20" viewBox="0 0 20 20" fill="none" xmlns="http://www.w3.org/2000/svg"><path fill-rule="evenodd" clip-rule="evenodd" d="M10.0003 3.33366C8.61961 3.33366 7.50033 4.45295 7.50033 5.83366C7.50033 7.21437 8.61961 8.33366 10.0003 8.33366C11.381 8.33366 12.5003 7.21437 12.5003 5.83366C12.5003 4.45295 11.381 3.33366 10.0003 3.33366ZM5.83366 5.83366C5.83366 3.53247 7.69914 1.66699 10.0003 1.66699C12.3015 1.66699 14.167 3.53247 14.167 5.83366C14.167 8.13484 12.3015 10.0003 10.0003 10.0003C7.69914 10.0003 5.83366 8.13484 5.83366 5.83366ZM8.33366 13.3337C7.67062 13.3337 7.03473 13.597 6.56589 14.0659C6.09705 14.5347 5.83366 15.1706 5.83366 15.8337V17.5003C5.83366 17.9606 5.46056 18.3337 5.00033 18.3337C4.54009 18.3337 4.16699 17.9606 4.16699 17.5003V15.8337C4.16699 14.7286 4.60598 13.6688 5.38738 12.8874C6.16878 12.106 7.22859 11.667 8.33366 11.667H11.667C12.7721 11.667 13.8319 12.106 14.6133 12.8874C15.3947 13.6688 15.8337 14.7286 15.8337 15.8337V17.5003C15.8337 17.9606 15.4606 18.3337 15.0003 18.3337C14.5401 18.3337 14.167 17.9606 14.167 17.5003V15.8337C14.167 15.1706 13.9036 14.5347 13.4348 14.0659C12.9659 13.597 12.33 13.3337 11.667 13.3337H8.33366Z" fill="currentColor"/></symbol>
	<symbol id="ShoppingCart" width="20" height="20" viewBox="0 0 20 20" fill="none" xmlns="http://www.w3.org/2000/svg"><path d="M14.9997 5.00033H13.333C13.333 3.15866 11.8413 1.66699 9.99968 1.66699C8.15801 1.66699 6.66634 3.15866 6.66634 5.00033H4.99967C4.08301 5.00033 3.33301 5.75033 3.33301 6.66699V16.667C3.33301 17.5837 4.08301 18.3337 4.99967 18.3337H14.9997C15.9163 18.3337 16.6663 17.5837 16.6663 16.667V6.66699C16.6663 5.75033 15.9163 5.00033 14.9997 5.00033ZM9.99968 3.33366C10.9163 3.33366 11.6663 4.08366 11.6663 5.00033H8.33301C8.33301 4.08366 9.08301 3.33366 9.99968 3.33366ZM14.9997 16.667H4.99967V6.66699H6.66634V8.33366C6.66634 8.79199 7.04134 9.16699 7.49967 9.16699C7.95801 9.16699 8.33301 8.79199 8.33301 8.33366V6.66699H11.6663V8.33366C11.6663 8.79199 12.0413 9.16699 12.4997 9.16699C12.958 9.16699 13.333 8.79199 13.333 8.33366V6.66699H14.9997V16.667Z" fill="currentColor"/></symbol>
	<symbol id="Bars3" xmlns="http://www.w3.org/2000/svg" viewBox="0 0 20 20" stroke="currentColor" fill="none"><path fill-rule="evenodd" clip-rule="evenodd" d="M2.5 5.00033C2.5 4.54009 2.8731 4.16699 3.33333 4.16699H16.6667C17.1269 4.16699 17.5 4.54009 17.5 5.00033C17.5 5.46056 17.1269 5.83366 16.6667 5.83366H3.33333C2.8731 5.83366 2.5 5.46056 2.5 5.00033ZM2.5 10.0003C2.5 9.54009 2.8731 9.16699 3.33333 9.16699H16.6667C17.1269 9.16699 17.5 9.54009 17.5 10.0003C17.5 10.4606 17.1269 10.8337 16.6667 10.8337H3.33333C2.8731 10.8337 2.5 10.4606 2.5 10.0003ZM2.5 15.0003C2.5 14.5401 2.8731 14.167 3.33333 14.167H16.6667C17.1269 14.167 17.5 14.5401 17.5 15.0003C17.5 15.4606 17.1269 15.8337 16.6667 15.8337H3.33333C2.8731 15.8337 2.5 15.4606 2.5 15.0003Z" fill="currentColor"/></symbol>
	<symbol id="Heart" xmlns="http://www.w3.org/2000/svg" fill="none" viewBox="0 0 24 24" stroke="currentColor"><path stroke-linecap="round" stroke-linejoin="round" d="M21 8.25c0-2.485-2.099-4.5-4.688-4.5-1.935 0-3.597 1.126-4.312 2.733-.715-1.607-2.377-2.733-4.313-2.733C5.1 3.75 3 5.765 3 8.25c0 7.22 9 12 9 12s9-4.78 9-12z" /></symbol>
	<symbol id="MagnifyingGlass" width="20" height="20" viewBox="0 0 20 20" fill="none" xmlns="http://www.w3.org/2000/svg"><path fill-rule="evenodd" clip-rule="evenodd" d="M8.33366 3.33366C5.57223 3.33366 3.33366 5.57223 3.33366 8.33366C3.33366 11.0951 5.57223 13.3337 8.33366 13.3337C11.0951 13.3337 13.3337 11.0951 13.3337 8.33366C13.3337 5.57223 11.0951 3.33366 8.33366 3.33366ZM1.66699 8.33366C1.66699 4.65176 4.65176 1.66699 8.33366 1.66699C12.0156 1.66699 15.0003 4.65176 15.0003 8.33366C15.0003 9.87425 14.4778 11.2928 13.6002 12.4217L18.0896 16.9111C18.415 17.2365 18.415 17.7641 18.0896 18.0896C17.7641 18.415 17.2365 18.415 16.9111 18.0896L12.4217 13.6002C11.2928 14.4778 9.87425 15.0003 8.33366 15.0003C4.65176 15.0003 1.66699 12.0156 1.66699 8.33366Z" fill="currentColor"/></symbol>
	<symbol id="XMark" xmlns="http://www.w3.org/2000/svg" fill="none" viewBox="0 0 24 24" stroke="currentColor"><path stroke-linecap="round" stroke-linejoin="round" d="M6 18L18 6M6 6l12 12" /></symbol>
	<symbol id="Plus" xmlns="http://www.w3.org/2000/svg" fill="none" viewBox="0 0 24 24" stroke="currentColor"><path stroke-linecap="round" stroke-linejoin="round" d="M12 4.5v15m7.5-7.5h-15" /></symbol>
	<symbol id="Minus" xmlns="http://www.w3.org/2000/svg" fill="none" viewBox="0 0 24 24" stroke="currentColor"><path stroke-linecap="round" stroke-linejoin="round" d="M19.5 12h-15" /></symbol>
	<symbol id="MapPin" xmlns="http://www.w3.org/2000/svg" fill="none" viewBox="0 0 24 24" stroke="currentColor"><path stroke-linecap="round" stroke-linejoin="round" d="M15 10.5a3 3 0 11-6 0 3 3 0 016 0z" /><path stroke-linecap="round" stroke-linejoin="round" d="M19.5 10.5c0 7.142-7.5 11.25-7.5 11.25S4.5 17.642 4.5 10.5a7.5 7.5 0 1115 0z" /></symbol>	
	<symbol id="Phone" xmlns="http://www.w3.org/2000/svg" fill="none" viewBox="0 0 24 24" stroke="currentColor"><path stroke-linecap="round" stroke-linejoin="round" d="M2.25 6.75c0 8.284 6.716 15 15 15h2.25a2.25 2.25 0 002.25-2.25v-1.372c0-.516-.351-.966-.852-1.091l-4.423-1.106c-.44-.11-.902.055-1.173.417l-.97 1.293c-.282.376-.769.542-1.21.38a12.035 12.035 0 01-7.143-7.143c-.162-.441.004-.928.38-1.21l1.293-.97c.363-.271.527-.734.417-1.173L6.963 3.102a1.125 1.125 0 00-1.091-.852H4.5A2.25 2.25 0 002.25 4.5v2.25z" /></symbol>
	<symbol id="Elo" xmlns="http://www.w3.org/2000/svg" viewBox="0 0 40 14" stroke="currentColor" fill="none"><path d="M6.57655 3.09309C6.98496 2.95495 7.4234 2.88288 7.87985 2.88288C9.87385 2.88288 11.5375 4.3003 11.9159 6.18018L14.7387 5.6036C14.0901 2.40841 11.2672 0 7.87985 0C7.10508 0 6.36033 0.126126 5.66364 0.36036L6.57655 3.09309Z" fill="currentColor"/><path d="M3.24323 12.2463L5.15314 10.0841C4.30029 9.32733 3.76576 8.22823 3.76576 6.997C3.76576 5.77178 4.30029 4.66667 5.15314 3.91592L3.24323 1.75977C1.79579 3.04505 0.882874 4.91292 0.882874 7.00301C0.882874 9.08709 1.79579 10.961 3.24323 12.2463Z" fill="currentColor"/><path d="M11.9159 7.82617C11.5315 9.70605 9.87387 11.1175 7.87988 11.1175C7.42342 11.1175 6.98498 11.0454 6.57057 10.9073L5.65765 13.64C6.35435 13.8742 7.1051 14.0003 7.87988 14.0003C11.2673 14.0003 14.0901 11.5979 14.7387 8.40275L11.9159 7.82617Z" fill="currentColor"/><path d="M24.1441 9.75962C23.6757 10.2161 23.045 10.4924 22.3484 10.4803C21.8679 10.4743 21.4234 10.3302 21.0511 10.0899L20.1141 11.5794C20.7568 11.9818 21.5075 12.2221 22.3243 12.2341C23.5075 12.2521 24.5886 11.7836 25.3754 11.0209L24.1441 9.75962ZM22.4505 3.68755C20.0961 3.65151 18.1502 5.5374 18.1141 7.89175C18.1021 8.77463 18.3544 9.60346 18.8048 10.2881L26.5405 6.97884C26.1081 5.12298 24.4505 3.72358 22.4505 3.68755ZM19.8859 8.22809C19.8739 8.13199 19.8679 8.02989 19.8679 7.92779C19.8919 6.5404 21.033 5.42929 22.4204 5.45331C23.1772 5.46532 23.8499 5.80767 24.3003 6.34821L19.8859 8.22809ZM28.973 1.76562V10.0119L30.4024 10.6065L29.7237 12.2341L28.3063 11.6455C27.988 11.5074 27.7718 11.2972 27.6096 11.0569C27.4535 10.8167 27.3333 10.4803 27.3333 10.0359V1.76562H28.973Z" fill="currentColor"/><path d="M34.1321 5.57925C34.3844 5.49516 34.6487 5.45312 34.9309 5.45312C36.1502 5.45312 37.1592 6.31798 37.3934 7.46513L39.1171 7.11078C38.7207 5.15882 36.997 3.69336 34.9309 3.69336C34.4565 3.69336 34 3.77144 33.5796 3.90958L34.1321 5.57925ZM32.0961 11.1588L33.2613 9.84351C32.7387 9.38105 32.4144 8.70837 32.4144 7.95762C32.4144 7.20687 32.7448 6.5342 33.2613 6.07774L32.0961 4.76243C31.2132 5.54321 30.6547 6.69036 30.6547 7.96363C30.6547 9.2369 31.2132 10.378 32.0961 11.1588ZM37.3934 8.46813C37.1592 9.61528 36.1442 10.4801 34.9309 10.4801C34.6547 10.4801 34.3844 10.4321 34.1321 10.348L33.5736 12.0177C34 12.1618 34.4565 12.2399 34.9309 12.2399C36.997 12.2399 38.7207 10.7744 39.1171 8.82249L37.3934 8.46813Z" fill="currentColor"/></symbol>
	<symbol id="Mastercard" xmlns="http://www.w3.org/2000/svg" viewBox="0 0 26 20" fill="none" stroke="currentColor"><g clip-path="url(#clip0_81_156)"><path d="M4.77191 19.9552V18.6263C4.77191 18.1167 4.46174 17.7846 3.95265 17.7846C3.68527 17.7846 3.39918 17.8734 3.19971 18.159C3.04463 17.9151 2.82538 17.7846 2.49116 17.7846C2.36689 17.7793 2.24323 17.8048 2.13124 17.8589C2.01926 17.913 1.92244 17.9941 1.84944 18.0948V17.8274H1.42859V19.9536H1.84944V18.737C1.84944 18.3627 2.07083 18.1836 2.381 18.1836C2.69116 18.1836 2.86816 18.383 2.86816 18.737V19.9552H3.28902V18.737C3.28902 18.3627 3.51041 18.1836 3.82057 18.1836C4.13073 18.1836 4.30773 18.383 4.30773 18.737V19.9552H4.77191ZM11.6821 17.8509H10.9067V17.2092H10.4869V17.8509H10.0441V18.2253H10.4869V19.2242C10.4869 19.7114 10.6639 19.9996 11.1954 19.9996C11.3968 19.9954 11.5941 19.9422 11.7703 19.8445L11.6371 19.4702C11.5177 19.5449 11.3791 19.5833 11.2382 19.5809C11.0168 19.5809 10.9061 19.4477 10.9061 19.2263V18.2082H11.6815V17.8536L11.6821 17.8509ZM15.6243 17.7846C15.5097 17.7821 15.3964 17.8093 15.2954 17.8637C15.1945 17.918 15.1093 17.9977 15.0484 18.0948V17.8274H14.6275V19.9536H15.0484V18.7595C15.0484 18.405 15.2254 18.1836 15.5136 18.1836C15.6109 18.1875 15.7074 18.2024 15.8013 18.2279L15.9345 17.829C15.8329 17.8034 15.729 17.7885 15.6243 17.7846ZM9.66656 18.006C9.44517 17.8509 9.13501 17.7846 8.80292 17.7846C8.27137 17.7846 7.93928 18.0285 7.93928 18.4493C7.93928 18.8039 8.18314 19.0028 8.64784 19.0697L8.86923 19.0916C9.11308 19.136 9.26816 19.2247 9.26816 19.3354C9.26816 19.4905 9.09116 19.6028 8.75854 19.6028C8.50456 19.608 8.2558 19.5303 8.04998 19.3814L7.82859 19.7135C8.13875 19.9349 8.51522 19.9809 8.73768 19.9809C9.358 19.9809 9.69009 19.6932 9.69009 19.2943C9.69009 18.9199 9.42271 18.7408 8.95907 18.6739L8.73768 18.652C8.53822 18.6301 8.36335 18.5632 8.36335 18.4306C8.36335 18.2755 8.54036 18.1632 8.78421 18.1632C9.05159 18.1632 9.31576 18.2739 9.44891 18.3402L9.66656 18.006ZM16.0896 18.8921C16.0896 19.5338 16.5104 19.9996 17.197 19.9996C17.5072 19.9996 17.7286 19.9333 17.95 19.7558L17.7286 19.4237C17.5718 19.5506 17.3768 19.6209 17.1751 19.6231C16.8008 19.6231 16.5104 19.3354 16.5104 18.9146C16.5104 18.4937 16.797 18.2082 17.1751 18.2082C17.3768 18.2104 17.5718 18.2807 17.7286 18.4076L17.95 18.0755C17.7286 17.8985 17.5072 17.8317 17.197 17.8317C16.5323 17.7873 16.0896 18.2525 16.0896 18.8948V18.8921ZM13.1216 17.7846C12.5013 17.7846 12.0805 18.2274 12.0805 18.8921C12.0805 19.5568 12.5232 19.9996 13.1655 19.9996C13.4779 20.0062 13.7831 19.9046 14.0291 19.7119L13.8077 19.4017C13.6298 19.5396 13.4125 19.6172 13.1874 19.6231C12.8997 19.6231 12.5896 19.4461 12.5457 19.0697H14.1184V18.8927C14.1184 18.2279 13.7195 17.7852 13.1216 17.7852V17.7846ZM13.0997 18.1836C13.4099 18.1836 13.6313 18.383 13.6532 18.7151H12.5019C12.5682 18.405 12.7692 18.1836 13.0997 18.1836ZM7.36335 18.8921V17.829H6.94249V18.0964C6.78741 17.8969 6.56816 17.7862 6.25586 17.7862C5.658 17.7862 5.21469 18.2515 5.21469 18.8937C5.21469 19.536 5.65747 20.0012 6.25586 20.0012C6.56602 20.0012 6.78741 19.8905 6.94249 19.691V19.9584H7.36335V18.8921ZM5.658 18.8921C5.658 18.4932 5.90185 18.1836 6.32271 18.1836C6.72164 18.1836 6.96442 18.4937 6.96442 18.8921C6.96442 19.313 6.69704 19.6007 6.32271 19.6007C5.90185 19.6226 5.658 19.2905 5.658 18.8921ZM22.0259 17.7846C21.9113 17.7821 21.798 17.8093 21.697 17.8637C21.5961 17.918 21.5109 17.9977 21.45 18.0948V17.8274H21.0291V19.9536H21.4495V18.7595C21.4495 18.405 21.6265 18.1836 21.9147 18.1836C22.012 18.1875 22.1085 18.2024 22.2024 18.2279L22.3355 17.829C22.234 17.8034 22.13 17.7885 22.0254 17.7846H22.0259ZM20.3869 18.8921V17.829H19.966V18.0964C19.8109 17.8969 19.5917 17.7862 19.2794 17.7862C18.6815 17.7862 18.2382 18.2515 18.2382 18.8937C18.2382 19.536 18.681 20.0012 19.2794 20.0012C19.5896 20.0012 19.8109 19.8905 19.966 19.691V19.9584H20.3869V18.8921ZM18.6815 18.8921C18.6815 18.4932 18.9254 18.1836 19.3462 18.1836C19.7452 18.1836 19.988 18.4937 19.988 18.8921C19.988 19.313 19.7206 19.6007 19.3462 19.6007C18.9254 19.6226 18.6815 19.2905 18.6815 18.8921ZM24.6618 18.8921V16.9873H24.2409V18.0948C24.0858 17.8953 23.8666 17.7846 23.5543 17.7846C22.9564 17.7846 22.5131 18.2499 22.5131 18.8921C22.5131 19.5344 22.9559 19.9996 23.5543 19.9996C23.8644 19.9996 24.0858 19.8889 24.2409 19.6894V19.9568H24.6618V18.8921ZM22.9564 18.8921C22.9564 18.4932 23.2003 18.1836 23.6211 18.1836C24.02 18.1836 24.2628 18.4937 24.2628 18.8921C24.2628 19.313 23.9954 19.6007 23.6211 19.6007C23.1997 19.6231 22.9559 19.291 22.9559 18.8921H22.9564Z" fill="currentColor"/><path d="M9.95478 7.97327C9.95505 6.76731 10.2281 5.57704 10.7536 4.49159C11.279 3.40613 12.0433 2.45361 12.989 1.70535C11.8128 0.780601 10.4002 0.205442 8.9126 0.045623C7.42499 -0.114196 5.92242 0.147775 4.57667 0.801588C3.23091 1.4554 2.09627 2.47468 1.30244 3.74289C0.508619 5.01111 0.0876465 6.47709 0.0876465 7.97327C0.0876465 9.46944 0.508619 10.9354 1.30244 12.2036C2.09627 13.4719 3.23091 14.4911 4.57667 15.1449C5.92242 15.7988 7.42499 16.0607 8.9126 15.9009C10.4002 15.7411 11.8128 15.1659 12.989 14.2412C12.0433 13.4929 11.279 12.5404 10.7536 11.4549C10.2281 10.3695 9.95505 9.17922 9.95478 7.97327Z" fill="currentColor"/><path d="M25.9019 7.97297C25.9029 9.46805 25.4832 10.9333 24.6907 12.201C23.8982 13.4688 22.7648 14.4879 21.4203 15.1418C20.0758 15.7957 18.5744 16.0579 17.0879 15.8986C15.6013 15.7393 14.1896 15.1648 13.0142 14.2409C13.9601 13.4928 14.7245 12.5403 15.25 11.4548C15.7755 10.3693 16.0485 9.17898 16.0485 7.97297C16.0485 6.76696 15.7755 5.5766 15.25 4.4911C14.7245 3.4056 13.9601 2.45312 13.0142 1.70506C14.1896 0.781104 15.6013 0.20662 17.0879 0.0473072C18.5744 -0.112005 20.0758 0.150287 21.4203 0.804186C22.7648 1.45808 23.8982 2.47719 24.6907 3.74493C25.4832 5.01268 25.9029 6.47789 25.9019 7.97297Z" fill="currentColor" fill-opacity="0.4"/><path fill-rule="evenodd" clip-rule="evenodd" d="M13.0141 1.70508H12.989C12.0432 2.45333 11.279 3.40585 10.7536 4.49131C10.2281 5.57677 9.95504 6.76704 9.95477 7.97299C9.95504 9.17894 10.2281 10.3692 10.7536 11.4547C11.279 12.5401 12.0433 13.4926 12.989 14.2409H13.0141C13.0141 14.2409 13.0141 14.2409 13.0141 14.2409C13.9601 13.4928 14.7245 12.5404 15.25 11.4549C15.7755 10.3694 16.0484 9.17899 16.0484 7.97299C16.0484 6.76698 15.7755 5.57661 15.25 4.49111C14.7245 3.40561 13.9601 2.45314 13.0141 1.70508Z" fill="currentColor" fill-opacity="0.6"/></g><defs><clipPath id="clip0_81_156"><rect width="25.8027" height="20" fill="white" transform="translate(0.0986328)"/></clipPath></defs></symbol>
	<symbol id="Visa" xmlns="http://www.w3.org/2000/svg" viewBox="0 0 40 12" fill="none" stroke="currentColor"><path d="M14.2514 11.8628L16.2325 0.237305H19.4012L17.4187 11.8628H14.2514Z" fill="currentColor"/><path d="M28.8667 0.488266C28.2389 0.252744 27.2552 0 26.0267 0C22.8956 0 20.6902 1.57674 20.6714 3.83653C20.6537 5.50698 22.2459 6.43886 23.4479 6.99494C24.6813 7.56486 25.0959 7.92824 25.09 8.437C25.0821 9.21631 24.105 9.57221 23.1942 9.57221C21.926 9.57221 21.2522 9.39601 20.2115 8.96208L19.8031 8.77728L19.3585 11.3797C20.0986 11.7043 21.4671 11.9854 22.8882 12C26.2191 12 28.3815 10.4413 28.4061 8.02807C28.4179 6.70556 27.5737 5.69921 25.7455 4.86948C24.638 4.33169 23.9597 3.97282 23.9669 3.42826C23.9669 2.94504 24.541 2.42833 25.7816 2.42833C26.8177 2.41223 27.5684 2.6382 28.1533 2.87372L28.4372 3.00787L28.8667 0.488266Z" fill="currentColor"/><path d="M37.0208 0.237305H34.5723C33.8138 0.237305 33.2461 0.444322 32.913 1.20137L28.2071 11.8552H31.5345C31.5345 11.8552 32.0785 10.4228 32.2015 10.1082C32.5651 10.1082 35.7976 10.1132 36.2597 10.1132C36.3545 10.5202 36.6452 11.8552 36.6452 11.8552H39.5855L37.0208 0.237305ZM33.136 7.74409C33.3981 7.07428 34.3985 4.49428 34.3985 4.49428C34.3798 4.52522 34.6587 3.82121 34.8186 3.38473L35.0328 4.38703C35.0328 4.38703 35.6395 7.16205 35.7663 7.74391H33.136V7.74409Z" fill="currentColor"/><path d="M0.45503 0.237305L0.414551 0.479138C1.66716 0.782359 2.78593 1.22123 3.76542 1.76717L6.57706 11.8441L9.92966 11.8404L14.9183 0.237305H11.5615L8.45929 8.16502L8.12885 6.55384C8.11337 6.50406 8.09654 6.4542 8.07932 6.40422L7.00087 1.21879C6.80912 0.482646 6.25282 0.262959 5.56461 0.237305H0.45503Z" fill="currentColor"/></symbol>		
	<symbol id="Pix" viewBox="0 0 512 512" xmlns="http://www.w3.org/2000/svg" fill="none" stroke="currentColor"> <defs/> <g fill="currentColor" fill-rule="evenodd"> <path d="M393.072 391.897c-20.082 0-38.969-7.81-53.176-22.02l-77.069-77.067c-5.375-5.375-14.773-5.395-20.17 0l-76.784 76.786c-14.209 14.207-33.095 22.019-53.179 22.019h-9.247l97.521 97.52c30.375 30.375 79.614 30.375 109.988 0l97.239-97.238h-15.123zm-105.049 74.327c-8.55 8.53-19.93 13.25-32.05 13.25h-.02c-12.12 0-23.522-4.721-32.05-13.25l-56.855-56.855c7.875-4.613 15.165-10.248 21.758-16.84l63.948-63.948 64.23 64.23c7.637 7.66 16.188 14.013 25.478 18.952l-54.439 54.46zM310.958 22.78c-30.374-30.374-79.613-30.374-109.988 0l-97.52 97.52h9.247c20.082 0 38.97 7.834 53.178 22.02l76.784 76.785c5.57 5.592 14.622 5.57 20.17 0l77.069-77.068c14.207-14.187 33.094-22.02 53.176-22.02h15.123l-97.239-97.237zm6.028 96.346l-64.23 64.23-63.97-63.97c-6.593-6.592-13.86-12.206-21.736-16.818l56.853-56.877c17.69-17.645 46.476-17.668 64.121 0l54.44 54.461c-9.292 4.961-17.842 11.315-25.479 18.974h.001z"/> <path d="M489.149 200.97l-58.379-58.377h-37.706c-13.838 0-27.394 5.635-37.185 15.426l-77.068 77.069c-7.202 7.18-16.623 10.77-26.067 10.77-9.443 0-18.885-3.59-26.066-10.77l-76.785-76.785c-9.792-9.814-23.346-15.427-37.207-15.427h-31.81L22.78 200.97c-30.374 30.375-30.374 79.614 0 109.988l58.095 58.074 31.81.021c13.86 0 27.416-5.635 37.208-15.426l76.784-76.764c13.925-13.947 38.208-13.924 52.133-.02l77.068 77.066c9.791 9.792 23.346 15.405 37.185 15.405h37.706l58.379-58.356c30.374-30.374 30.374-79.613 0-109.988zm-362.19 129.724c-3.763 3.786-8.942 5.917-14.273 5.917H94.302l-48.59-48.564c-17.689-17.69-17.689-46.476 0-64.143L94.3 175.296h18.385c5.331 0 10.51 2.154 14.295 5.918l74.74 74.74-74.761 74.74zm339.257-42.647l-48.848 48.87h-24.305c-5.309 0-10.508-2.155-14.251-5.92l-75.023-75.043 75.023-75.023c3.743-3.764 8.942-5.918 14.252-5.918h24.304l48.847 48.891c8.573 8.551 13.273 19.93 13.273 32.05 0 12.141-4.7 23.52-13.273 32.093z"/> </g> </symbol>
	<symbol id="Facebook" xmlns="http://www.w3.org/2000/svg" viewBox="0 0 24 24" stroke="currentColor" fill="none" stroke-linecap="round" stroke-linejoin="round"><path stroke="none" d="M0 0h24v24H0z" fill="none" /><path d="M7 10v4h3v7h4v-7h3l1 -4h-4v-2a1 1 0 0 1 1 -1h3v-4h-3a5 5 0 0 0 -5 5v2h-3" /></symbol>
	<symbol id="Instagram" xmlns="http://www.w3.org/2000/svg" viewBox="0 0 24 24" stroke="currentColor" fill="none" stroke-linecap="round" stroke-linejoin="round"><path stroke="none" d="M0 0h24v24H0z" fill="none" /><rect x="4" y="4" width="16" height="16" rx="4" /><circle cx="12" cy="12" r="3" /><line x1="16.5" y1="7.5" x2="16.5" y2="7.501" /></symbol>
	<symbol id="Tiktok" xmlns="http://www.w3.org/2000/svg" viewBox="0 0 24 24" stroke="currentColor" fill="none" stroke-linecap="round" stroke-linejoin="round"><path stroke="none" d="M0 0h24v24H0z" fill="none" /><path d="M9 12a4 4 0 1 0 4 4v-12a5 5 0 0 0 5 5" /></symbol>
	<symbol id="Truck" xmlns="http://www.w3.org/2000/svg"  viewBox="0 0 36 28" stroke="currentColor" fill="none"><path d="M14 22.333C14 24.174 12.5077 25.6663 10.6667 25.6663C8.82576 25.6663 7.33337 24.174 7.33337 22.333M14 22.333C14 20.4921 12.5077 18.9997 10.6667 18.9997C8.82576 18.9997 7.33337 20.4921 7.33337 22.333M14 22.333H24M7.33337 22.333H4.00004V15.6663M30.6667 22.333C30.6667 24.174 29.1743 25.6663 27.3334 25.6663C25.4924 25.6663 24 24.174 24 22.333M30.6667 22.333C30.6667 20.4921 29.1743 18.9997 27.3334 18.9997C25.4924 18.9997 24 20.4921 24 22.333M30.6667 22.333H34V12.333M2.33337 2.33301H20.6667V22.333M34 12.333H20.6667M34 12.333L29 3.99967H20.6667M4.00004 8.99967H10.6667" stroke-linecap="round" stroke-linejoin="round"/></symbol>
	<symbol id="Discount" xmlns="http://www.w3.org/2000/svg" viewBox="0 0 34 34" stroke="currentColor" fill="none"><path d="M12 21.9998L22 11.9998M13.6667 12.8332C13.6667 13.2934 13.2936 13.6665 12.8333 13.6665C12.3731 13.6665 12 13.2934 12 12.8332C12 12.3729 12.3731 11.9998 12.8333 11.9998C13.2936 11.9998 13.6667 12.3729 13.6667 12.8332ZM22 21.1665C22 21.6267 21.6269 21.9998 21.1667 21.9998C20.7064 21.9998 20.3333 21.6267 20.3333 21.1665C20.3333 20.7063 20.7064 20.3332 21.1667 20.3332C21.6269 20.3332 22 20.7063 22 21.1665ZM5.33334 8.99979C5.33334 8.02733 5.71965 7.0947 6.40728 6.40707C7.09491 5.71943 8.02755 5.33313 9.00001 5.33313H10.6667C11.6348 5.33257 12.5635 4.94913 13.25 4.26646L14.4167 3.09979C14.7574 2.75713 15.1625 2.4852 15.6087 2.29964C16.0549 2.11408 16.5334 2.01855 17.0167 2.01855C17.4999 2.01855 17.9784 2.11408 18.4246 2.29964C18.8708 2.4852 19.2759 2.75713 19.6167 3.09979L20.7833 4.26646C21.4699 4.94913 22.3985 5.33257 23.3667 5.33313H25.0333C26.0058 5.33313 26.9384 5.71943 27.6261 6.40707C28.3137 7.0947 28.7 8.02733 28.7 8.99979V10.6665C28.7006 11.6346 29.084 12.5633 29.7667 13.2498L30.9333 14.4165C31.276 14.7572 31.5479 15.1623 31.7335 15.6085C31.9191 16.0547 32.0146 16.5332 32.0146 17.0165C32.0146 17.4997 31.9191 17.9782 31.7335 18.4244C31.5479 18.8706 31.276 19.2757 30.9333 19.6165L29.7667 20.7831C29.084 21.4696 28.7006 22.3983 28.7 23.3665V25.0331C28.7 26.0056 28.3137 26.9382 27.6261 27.6259C26.9384 28.3135 26.0058 28.6998 25.0333 28.6998H23.3667C22.3985 28.7003 21.4699 29.0838 20.7833 29.7665L19.6167 30.9331C19.2759 31.2758 18.8708 31.5477 18.4246 31.7333C17.9784 31.9188 17.4999 32.0144 17.0167 32.0144C16.5334 32.0144 16.0549 31.9188 15.6087 31.7333C15.1625 31.5477 14.7574 31.2758 14.4167 30.9331L13.25 29.7665C12.5635 29.0838 11.6348 28.7003 10.6667 28.6998H9.00001C8.02755 28.6998 7.09491 28.3135 6.40728 27.6259C5.71965 26.9382 5.33334 26.0056 5.33334 25.0331V23.3665C5.33279 22.3983 4.94934 21.4696 4.26667 20.7831L3.10001 19.6165C2.75734 19.2757 2.48541 18.8706 2.29985 18.4244C2.11429 17.9782 2.01877 17.4997 2.01877 17.0165C2.01877 16.5332 2.11429 16.0547 2.29985 15.6085C2.48541 15.1623 2.75734 14.7572 3.10001 14.4165L4.26667 13.2498C4.94934 12.5633 5.33279 11.6346 5.33334 10.6665V8.99979Z" stroke-linecap="round" stroke-linejoin="round"/></symbol>
	<symbol id="Return" xmlns="http://www.w3.org/2000/svg" viewBox="0 0 34 30" stroke="currentColor" fill="none"><path d="M32 6.66699H2M32 6.66699L27 11.667M32 6.66699L27 1.66699M7 28.3337L2 23.3337M2 23.3337L7 18.3337M2 23.3337H32" stroke-linecap="round" stroke-linejoin="round"/></symbol>			
	<symbol id="CreditCard" xmlns="http://www.w3.org/2000/svg" viewBox="0 0 34 28" stroke="currentColor" fill="none"><path d="M2 10.6663H32M8.66667 18.9997H8.68333M15.3333 18.9997H18.6667M7 2.33301H27C29.7614 2.33301 32 4.57158 32 7.33301V20.6663C32 23.4278 29.7614 25.6663 27 25.6663H7C4.23858 25.6663 2 23.4278 2 20.6663V7.33301C2 4.57158 4.23858 2.33301 7 2.33301Z" stroke-linecap="round" stroke-linejoin="round"/></symbol>		
	<symbol id="Deco" xmlns="http://www.w3.org/2000/svg" viewBox="0 0 58 20" stroke="currentColor" fill="none"><path d="M49.5359 16.9432C47.3666 16.9432 46.9948 14.8019 47.6797 12.7178C48.2221 11.0615 49.5066 9.31991 51.4201 9.31991C53.676 9.31991 53.9039 11.6038 53.247 13.6026C52.6753 15.3162 51.3908 16.9432 49.5359 16.9432ZM48.879 19.9973C52.6473 19.9973 56.0159 17.9133 57.3578 14.1449C58.7569 10.1767 57.1859 6.2085 52.0477 6.2085C47.9369 6.2085 44.7962 8.77758 43.5969 12.1755C42.2551 16.0011 43.7115 19.9973 48.879 19.9973ZM36.3747 19.9973C37.8591 19.9973 39.3729 19.6829 40.4282 19.2271C40.8 18.1998 40.828 17.2004 40.5428 16.201C39.8006 16.4862 38.7732 16.7727 37.7165 16.7727C34.861 16.7727 34.6051 14.6606 35.2048 12.8617C35.8617 10.9496 37.574 9.40786 40.287 9.40786C41.0012 9.40786 41.6861 9.52246 42.1138 9.77963C42.856 8.78025 43.2838 7.78086 43.3704 6.7535C42.7428 6.46834 41.6861 6.21117 40.3163 6.21117C35.863 6.21117 32.3505 8.80956 31.0953 12.406C29.896 15.8039 30.8101 20 36.3774 20L36.3747 19.9973ZM21.0442 11.8037C21.8143 10.0901 23.0136 9.09206 24.5846 9.09206C25.9838 9.09206 26.2116 9.86225 25.9838 10.4619C25.6413 11.2894 24.47 11.8037 21.0442 11.8037ZM22.2714 19.9973C23.7278 19.9973 25.7826 19.7122 27.4962 18.8554C27.7813 17.9133 27.7534 16.9712 27.4389 15.9998C26.3542 16.5421 24.8405 16.8566 23.4707 16.8566C21.4439 16.8566 20.3299 16.1997 20.3592 14.5447C25.8972 14.6873 28.7807 13.6879 29.7228 11.2334C30.6649 8.7496 29.0379 6.2085 25.1829 6.2085C21.0721 6.2085 18.046 9.14935 16.932 12.3181C15.7621 15.6867 16.5043 19.9973 22.2701 19.9973H22.2714ZM5.72293 19.9973C9.52059 19.9973 11.6806 18.2557 14.1924 12.9177C15.5622 9.97684 16.7335 7.09329 18.0753 4.23905L19.6743 4.7534C20.1021 4.89598 20.3313 4.6388 20.1314 4.23905L18.1899 0.270827C18.0473 -0.0143302 17.7329 -0.0436454 17.533 0.0429678L12.708 1.86984C12.3082 2.01242 12.3362 2.38419 12.7359 2.49745L14.1631 2.95451C12.9931 5.6102 11.5367 9.60641 10.3654 12.1182C9.05155 14.9165 8.39595 16.8859 6.16933 16.8859C3.9427 16.8859 3.57093 15.1443 4.51301 12.6605C5.59768 9.77697 7.42455 8.92016 9.5086 9.51979C10.0802 8.72028 10.508 7.52103 10.6785 6.43636C10.0789 6.26447 9.36469 6.2085 8.76639 6.2085C5.3978 6.2085 2.05719 7.95009 0.687373 11.6038C-1.0822 16.3143 0.554122 19.9973 5.7216 19.9973H5.72293Z" fill="currentColor"/></symbol>
	<symbol id="Discord" xmlns="http://www.w3.org/2000/svg" viewBox="0 0 127.14 96.36" stroke="currentColor" fill="none"><g id="图层_2" data-name="图层 2"><g id="Discord_Logos" data-name="Discord Logos"><g id="Discord_Logo_-_Large_-_White" data-name="Discord Logo - Large - White"><path class="cls-1" d="M107.7,8.07A105.15,105.15,0,0,0,81.47,0a72.06,72.06,0,0,0-3.36,6.83A97.68,97.68,0,0,0,49,6.83,72.37,72.37,0,0,0,45.64,0,105.89,105.89,0,0,0,19.39,8.09C2.79,32.65-1.71,56.6.54,80.21h0A105.73,105.73,0,0,0,32.71,96.36,77.7,77.7,0,0,0,39.6,85.25a68.42,68.42,0,0,1-10.85-5.18c.91-.66,1.8-1.34,2.66-2a75.57,75.57,0,0,0,64.32,0c.87.71,1.76,1.39,2.66,2a68.68,68.68,0,0,1-10.87,5.19,77,77,0,0,0,6.89,11.1A105.25,105.25,0,0,0,126.6,80.22h0C129.24,52.84,122.09,29.11,107.7,8.07ZM42.45,65.69C36.18,65.69,31,60,31,53s5-12.74,11.43-12.74S54,46,53.89,53,48.84,65.69,42.45,65.69Zm42.24,0C78.41,65.69,73.25,60,73.25,53s5-12.74,11.44-12.74S96.23,46,96.12,53,91.08,65.69,84.69,65.69Z"/></g></g></g></symbol>
	<symbol id="FilterList" xmlns="http://www.w3.org/2000/svg" viewBox="0 0 16 16" fill="none"><path d="M6.66667 12H9.33333V10.6667H6.66667V12ZM2 4V5.33333H14V4H2ZM4 8.66667H12V7.33333H4V8.66667Z" fill="currentColor"/></symbol>
	<symbol id="ChevronUp" xmlns="http://www.w3.org/2000/svg" viewBox="0 0 16 16" stroke="currentColor" fill="none"><path fill-rule="evenodd" clip-rule="evenodd" d="M7.52851 5.52827C7.78886 5.26792 8.21097 5.26792 8.47132 5.52827L12.4713 9.52827C12.7317 9.78862 12.7317 10.2107 12.4713 10.4711C12.211 10.7314 11.7889 10.7314 11.5285 10.4711L7.99992 6.94248L4.47132 10.4711C4.21097 10.7314 3.78886 10.7314 3.52851 10.4711C3.26816 10.2107 3.26816 9.78862 3.52851 9.52827L7.52851 5.52827Z" fill="black"/></symbol>
	<symbol id="Trash" width="20" height="20" viewBox="0 0 20 20" fill="none" xmlns="http://www.w3.org/2000/svg"><path fill-rule="evenodd" clip-rule="evenodd" d="M7.15482 2.15483C7.46738 1.84227 7.89131 1.66667 8.33333 1.66667H11.6667C12.1087 1.66667 12.5326 1.84227 12.8452 2.15483C13.1577 2.46739 13.3333 2.89131 13.3333 3.33334V5H15.8236C15.8295 4.99994 15.8353 4.99994 15.8412 5H16.6667C17.1269 5 17.5 5.3731 17.5 5.83334C17.5 6.29357 17.1269 6.66667 16.6667 6.66667H16.6001L15.833 15.8715C15.8231 16.5207 15.5609 17.1413 15.1011 17.6011C14.6323 18.0699 13.9964 18.3333 13.3333 18.3333H6.66667C6.00362 18.3333 5.36774 18.0699 4.8989 17.6011C4.43906 17.1413 4.17685 16.5207 4.16696 15.8715L3.39989 6.66667H3.33333C2.8731 6.66667 2.5 6.29357 2.5 5.83334C2.5 5.3731 2.8731 5 3.33333 5H4.15878C4.16467 4.99994 4.17055 4.99994 4.17641 5H6.66667V3.33334C6.66667 2.89131 6.84226 2.46739 7.15482 2.15483ZM5.07233 6.66667L5.83045 15.7641C5.83237 15.7871 5.83333 15.8102 5.83333 15.8333C5.83333 16.0543 5.92113 16.2663 6.07741 16.4226C6.23369 16.5789 6.44565 16.6667 6.66667 16.6667H13.3333C13.5543 16.6667 13.7663 16.5789 13.9226 16.4226C14.0789 16.2663 14.1667 16.0543 14.1667 15.8333C14.1667 15.8102 14.1676 15.7871 14.1695 15.7641L14.9277 6.66667H5.07233ZM11.6667 5H8.33333V3.33334H11.6667V5ZM8.33333 8.33334C8.79357 8.33334 9.16667 8.70643 9.16667 9.16667V14.1667C9.16667 14.6269 8.79357 15 8.33333 15C7.8731 15 7.5 14.6269 7.5 14.1667V9.16667C7.5 8.70643 7.8731 8.33334 8.33333 8.33334ZM11.6667 8.33334C12.1269 8.33334 12.5 8.70643 12.5 9.16667V14.1667C12.5 14.6269 12.1269 15 11.6667 15C11.2064 15 10.8333 14.6269 10.8333 14.1667V9.16667C10.8333 8.70643 11.2064 8.33334 11.6667 8.33334Z" fill="currentColor"/></symbol>
	<symbol id="WhatsApp"  xmlns="http://www.w3.org/2000/svg" viewBox="0 0 18 18" fill="none" ><path fill-rule="evenodd" clip-rule="evenodd" d="M13.333 3.94275C12.0977 2.88909 10.5203 2.32246 8.89688 2.34921C7.27345 2.37596 5.71558 2.99425 4.51564 4.08804C3.3157 5.18184 2.55617 6.67594 2.3796 8.28996C2.20302 9.90398 2.62153 11.527 3.5566 12.8543C3.72398 13.0919 3.75547 13.3996 3.63972 13.6661L2.88341 15.408L5.56246 14.9305C5.73665 14.8995 5.9162 14.9247 6.07512 15.0025C7.53336 15.7165 9.20204 15.8737 10.768 15.4448C12.334 15.0158 13.6896 14.0301 14.5804 12.6727C15.4712 11.3152 15.836 9.67933 15.6064 8.07201C15.3767 6.46468 14.5684 4.99641 13.333 3.94275ZM8.86942 0.682773C10.8987 0.649334 12.8704 1.35761 14.4146 2.67469C15.9588 3.99177 16.9692 5.8271 17.2563 7.83626C17.5433 9.84542 17.0873 11.8903 15.9738 13.5871C14.8603 15.2839 13.1658 16.516 11.2083 17.0522C9.34061 17.5638 7.35601 17.4083 5.59455 16.6177L1.64654 17.3213C1.34428 17.3752 1.03687 17.2585 0.846507 17.0176C0.656144 16.7767 0.613663 16.4506 0.735949 16.169L1.93091 13.417C0.947723 11.8367 0.519412 9.96793 0.722814 8.1087C0.943534 6.09118 1.89294 4.22355 3.39287 2.85631C4.8928 1.48907 6.84013 0.716212 8.86942 0.682773ZM6.03312 5.61685C6.26754 5.38243 6.58548 5.25073 6.917 5.25073C7.24852 5.25073 7.56646 5.38243 7.80088 5.61685C8.03531 5.85127 8.167 6.16921 8.167 6.50073V7.33407C8.167 7.66558 8.03531 7.98353 7.80088 8.21795C7.71659 8.30224 7.62149 8.37326 7.51885 8.42964C7.68255 8.89999 7.95113 9.33224 8.30998 9.69109C8.66883 10.0499 9.10107 10.3185 9.57143 10.4822C9.62781 10.3796 9.69882 10.2845 9.78312 10.2002C10.0175 9.96576 10.3355 9.83407 10.667 9.83407H11.5003C11.8319 9.83407 12.1498 9.96576 12.3842 10.2002C12.6186 10.4346 12.7503 10.7525 12.7503 11.0841C12.7503 11.4156 12.6186 11.7335 12.3842 11.9679C12.1498 12.2024 11.8319 12.3341 11.5003 12.3341H10.667C9.34092 12.3341 8.06915 11.8073 7.13147 10.8696C6.19378 9.93192 5.667 8.66015 5.667 7.33407V6.50073C5.667 6.16921 5.79869 5.85127 6.03312 5.61685Z" fill="currentColor"/></symbol>
	<symbol id="User2" xmlns="http://www.w3.org/2000/svg" width="24" height="24" viewBox="0 0 24 24" fill="none" stroke="currentColor" stroke-width="2" stroke-linecap="round" stroke-linejoin="round"><path d="M19 21v-2a4 4 0 0 0-4-4H9a4 4 0 0 0-4 4v2"></path><circle cx="12" cy="7" r="4"></circle></symbol>
    <symbol id="Minicart" xmlns="http://www.w3.org/2000/svg" width="24" height="24" viewBox="0 0 24 24" fill="none" stroke="currentColor" stroke-width="2" stroke-linecap="round" stroke-linejoin="round"><circle cx="8" cy="21" r="1"></circle><circle cx="19" cy="21" r="1"></circle><path d="M2.05 2.05h2l2.66 12.42a2 2 0 0 0 2 1.58h9.78a2 2 0 0 0 1.95-1.57l1.65-7.43H5.12"></path></symbol>
    <symbol id="Hamburger2" xmlns="http://www.w3.org/2000/svg" width="24" height="24" viewBox="0 0 24 24" fill="none" stroke="currentColor" stroke-width="2" stroke-linecap="round" stroke-linejoin="round"><line x1="4" y1="12" x2="20" y2="12"></line><line x1="4" y1="6" x2="20" y2="6"></line><line x1="4" y1="18" x2="20" y2="18"></line></symbol>
    <symbol id="Instagram2" xmlns="http://www.w3.org/2000/svg" width="24" height="24" viewBox="0 0 24 24" fill="none" stroke="currentColor" stroke-width="2" stroke-linecap="round" stroke-linejoin="round"><rect x="2" y="2" width="20" height="20" rx="5" ry="5"></rect><path d="M16 11.37A4 4 0 1 1 12.63 8 4 4 0 0 1 16 11.37z"></path><line x1="17.5" y1="6.5" x2="17.51" y2="6.5"></line></symbol>
    <symbol id="Facebook2" xmlns="http://www.w3.org/2000/svg" width="24" height="24" viewBox="0 0 24 24" fill="currentColor"><path d="M18 2H15C13.6739 2 12.4021 2.52678 11.4645 3.46447C10.5268 4.40215 10 5.67392 10 7V10H7V14H10V22H14V14H17L18 10H14V7C14 6.73478 14.1054 6.48043 14.2929 6.29289C14.4804 6.10536 14.7348 6 15 6H18V2Z" fill="currentColor" stroke="currentColor" stroke-width="2" stroke-linecap="round" stroke-linejoin="round"/></symbol>
    <symbol id="Twitter2" xmlns="http://www.w3.org/2000/svg" width="24" height="24" viewBox="0 0 24 24" fill="currentColor" stroke="currentColor"><path d="M22 4.00001C22 4.00001 21.3 6.10001 20 7.40001C21.6 17.4 10.6 24.7 2 19C4.2 19.1 6.4 18.4 8 17C3 15.5 0.5 9.60001 3 5.00001C5.2 7.60001 8.6 9.10001 12 9.00001C11.1 4.80001 16 2.40001 19 5.20001C20.1 5.20001 22 4.00001 22 4.00001Z" fill="currentColor" stroke="currentColor" stroke-width="2" stroke-linecap="round" stroke-linejoin="round"/></symbol>
    <symbol id="Vsco2" xmlns="http://www.w3.org/2000/svg" width="24" height="24" viewBox="0 0 24 24" fill="none"><g clip-path="url(#clip)"><path d="M12 0C9.62663 0 7.30655 0.703788 5.33316 2.02236C3.35977 3.34094 1.8217 5.21508 0.913451 7.4078C0.00519939 9.60051 -0.232441 12.0133 0.230582 14.3411C0.693605 16.6689 1.83649 18.807 3.51472 20.4853C5.19295 22.1635 7.33115 23.3064 9.65892 23.7694C11.9867 24.2324 14.3995 23.9948 16.5922 23.0865C18.7849 22.1783 20.6591 20.6402 21.9776 18.6668C23.2962 16.6934 24 14.3734 24 12C23.9962 8.81857 22.7307 5.76854 20.4811 3.51893C18.2315 1.26932 15.1814 0.00381086 12 0ZM23.52 12C23.5201 12.3944 23.5 12.7885 23.46 13.1808L21.4224 12.9408C21.4512 12.636 21.468 12.324 21.468 12.012C21.468 11.7 21.4536 11.424 21.4248 11.1336L23.4624 10.8936C23.52 11.2488 23.52 11.6208 23.52 12ZM0.480005 12C0.479789 11.6121 0.499013 11.2244 0.537605 10.8384L2.5752 11.0784C2.5464 11.3784 2.5296 11.6832 2.5296 11.9904C2.5296 12.2976 2.5464 12.6024 2.5752 12.9024L0.537605 13.1424C0.499205 12.7712 0.480005 12.3904 0.480005 12ZM20.952 8.8968L22.872 8.1768C23.1276 8.90225 23.3093 9.65165 23.4144 10.4136L21.3768 10.6536C21.292 10.0557 21.1497 9.46738 20.952 8.8968ZM21.0072 12C21.0069 12.5882 20.949 13.175 20.8344 13.752L18.816 13.2864C18.9843 12.4193 18.9843 11.5279 18.816 10.6608L20.8368 10.2048C20.9535 10.796 21.0105 11.3974 21.0072 12ZM12 18.4656C10.7212 18.4656 9.47117 18.0864 8.40791 17.3759C7.34465 16.6655 6.51593 15.6557 6.02657 14.4743C5.5372 13.2928 5.40916 11.9928 5.65864 10.7386C5.90812 9.48442 6.5239 8.33236 7.42813 7.42813C8.33236 6.5239 9.48442 5.90811 10.7386 5.65863C11.9928 5.40916 13.2928 5.5372 14.4743 6.02656C15.6557 6.51593 16.6655 7.34464 17.376 8.4079C18.0864 9.47117 18.4656 10.7212 18.4656 12C18.4618 13.7136 17.7794 15.356 16.5677 16.5677C15.356 17.7794 13.7136 18.4618 12 18.4656ZM12.2184 21V18.9288C13.1075 18.9011 13.9828 18.7014 14.796 18.3408L15.6912 20.208C14.5986 20.703 13.4176 20.9731 12.2184 21.0024V21ZM8.2776 20.1984L9.1776 18.3336C9.9916 18.6981 10.8686 18.9011 11.76 18.9312V21C10.5571 20.9697 9.37267 20.6971 8.2776 20.1984ZM2.9928 12C2.99224 11.3873 3.05416 10.7761 3.1776 10.176L5.196 10.6392C5.02234 11.5052 5.01664 12.3966 5.1792 13.2648L3.1584 13.7232C3.04804 13.1554 2.99258 12.5784 2.9928 12ZM11.76 3V5.0712C10.8839 5.09972 10.0212 5.29522 9.2184 5.6472L8.3208 3.7824C9.40391 3.29592 10.573 3.02995 11.76 3ZM15.7032 3.792L14.7984 5.6544C13.991 5.29703 13.1225 5.09822 12.24 5.0688V3C13.4357 3.02979 14.6134 3.2991 15.7032 3.792ZM20.7888 8.4576C20.5622 7.89775 20.2826 7.3609 19.9536 6.8544L21.6336 5.6928C22.0562 6.33624 22.4132 7.02046 22.6992 7.7352L20.7888 8.4576ZM20.724 9.7488L18.7008 10.2048C18.473 9.3553 18.0853 8.55704 17.5584 7.8528L19.1808 6.5688C19.9 7.51627 20.4237 8.5972 20.7216 9.7488H20.724ZM17.2608 7.4856C16.6892 6.81977 15.9971 6.26772 15.2208 5.8584L16.1256 3.996C17.1801 4.54186 18.1171 5.28962 18.8832 6.1968L17.2608 7.4856ZM16.6584 3.7512L17.6184 1.9368C18.2904 2.31365 18.9232 2.75665 19.5072 3.2592L18.1416 4.8C17.6818 4.40392 17.1851 4.05273 16.6584 3.7512ZM16.2432 3.5304C15.7055 3.25871 15.1429 3.0393 14.5632 2.8752L15.06 0.8832C15.8063 1.08709 16.53 1.36611 17.22 1.716L16.2432 3.5304ZM14.0952 2.76C13.4949 2.62059 12.8824 2.54021 12.2664 2.52V0.48C13.0494 0.496601 13.8286 0.593101 14.592 0.768L14.0952 2.76ZM11.796 2.52C11.189 2.53236 10.5846 2.60308 9.9912 2.7312L9.5112 0.7392C10.263 0.576657 11.0293 0.489824 11.7984 0.48L11.796 2.52ZM9.5328 2.8416C8.94542 2.99961 8.37475 3.21422 7.8288 3.4824L6.8784 1.68C7.56896 1.33504 8.29264 1.06085 9.0384 0.8616L9.5328 2.8416ZM7.4136 3.7008C6.88177 3.99607 6.37947 4.34165 5.9136 4.7328L4.56 3.2064C5.14965 2.70541 5.78804 2.26481 6.4656 1.8912L7.4136 3.7008ZM7.8936 3.9744L8.7912 5.8392C8.01384 6.24588 7.32013 6.79548 6.7464 7.4592L5.1288 6.168C5.90147 5.26514 6.84416 4.52306 7.9032 3.984L7.8936 3.9744ZM4.8408 6.5424L6.4584 7.8336C5.92867 8.53564 5.53769 9.33227 5.3064 10.1808L3.2856 9.7176C3.58843 8.56658 4.11707 7.48726 4.8408 6.5424ZM3.2304 8.4L1.31041 7.68C1.60382 6.96268 1.96887 6.27681 2.4 5.6328L4.08 6.7992C3.74623 7.30438 3.46173 7.84044 3.2304 8.4ZM3.0624 8.8392C2.85903 9.41317 2.71194 10.0056 2.62321 10.608L0.588005 10.368C0.696812 9.60066 0.883372 8.84638 1.14481 8.1168L3.0624 8.8392ZM2.62321 13.3776C2.71193 13.98 2.85902 14.5724 3.0624 15.1464L1.14241 15.8664C0.881946 15.1375 0.696193 14.384 0.588005 13.6176L2.62321 13.3776ZM3.228 15.588C3.45954 16.151 3.74486 16.6903 4.08 17.1984L2.4 18.3624C1.96915 17.7199 1.60411 17.0357 1.31041 16.32L3.228 15.588ZM3.2592 14.1816L5.28 13.7232C5.50091 14.5811 5.88467 15.3886 6.4104 16.1016L4.8 17.3904C4.0782 16.4342 3.55512 15.3431 3.2616 14.1816H3.2592ZM6.6984 16.4712C7.27079 17.1494 7.96722 17.7122 8.7504 18.1296L7.8528 19.992C6.7904 19.4385 5.84824 18.6799 5.0808 17.76L6.6984 16.4712ZM7.404 20.2872L6.444 22.104C5.77394 21.7292 5.14283 21.2886 4.56 20.7888L5.9208 19.2552C6.38287 19.6457 6.88113 19.9913 7.4088 20.2872H7.404ZM7.8216 20.5056C8.36601 20.7735 8.93506 20.9881 9.5208 21.1464L9.0264 23.1384C8.28064 22.9391 7.55696 22.665 6.8664 22.32L7.8216 20.5056ZM9.9816 21.2592C10.5742 21.388 11.1777 21.4595 11.784 21.4728V23.52C11.0128 23.5058 10.2449 23.4141 9.492 23.2464L9.9816 21.2592ZM12.2544 21.4704C12.8601 21.4546 13.4629 21.3807 14.0544 21.2496L14.5344 23.2416C13.7809 23.4111 13.0122 23.5043 12.24 23.52L12.2544 21.4704ZM14.5104 21.1368C15.0939 20.9765 15.6605 20.7603 16.2024 20.4912L17.1624 22.308C16.472 22.6546 15.7483 22.9304 15.0024 23.1312L14.5104 21.1368ZM16.6176 20.2704C17.1452 19.9752 17.6434 19.6305 18.1056 19.2408L19.4616 20.7792C18.8758 21.2744 18.2423 21.7101 17.5704 22.08L16.6176 20.2704ZM16.116 20.004L15.2208 18.1368C16.0058 17.7231 16.7047 17.1635 17.28 16.488L18.8952 17.7816C18.1257 18.6994 17.1819 19.4556 16.1184 20.0064L16.116 20.004ZM19.2 17.4144L17.5848 16.1208C18.1116 15.4095 18.497 14.6038 18.72 13.7472L20.7384 14.2128C20.444 15.3718 19.9209 16.4603 19.2 17.4144ZM20.7696 15.6L22.6896 16.32C22.3956 17.034 22.0306 17.7166 21.6 18.3576L19.92 17.1888C20.2531 16.6874 20.5376 16.1554 20.7696 15.6ZM20.9376 15.1608C21.1393 14.5914 21.2855 14.0039 21.3744 13.4064L23.4096 13.6464C23.3005 14.408 23.1147 15.1566 22.8552 15.8808L20.9376 15.1608ZM21.3768 5.3208L19.6968 6.4824C19.3409 5.99175 18.9391 5.5361 18.4968 5.1216L19.86 3.5904C20.4208 4.11029 20.9288 4.68428 21.3768 5.304V5.3208ZM4.2024 3.516L5.5632 5.052C5.12094 5.46651 4.71913 5.92216 4.3632 6.4128L2.68321 5.2464C3.13108 4.62074 3.63998 4.04109 4.2024 3.516ZM2.6592 18.7488L4.3392 17.5848C4.69525 18.0746 5.09706 18.5294 5.5392 18.9432L4.176 20.4768C3.61454 19.9523 3.10645 19.3735 2.6592 18.7488ZM19.8144 20.4672L18.456 18.9288C18.8979 18.5166 19.2997 18.0633 19.656 17.5752L21.336 18.744C20.8877 19.3672 20.3789 19.9444 19.8168 20.4672H19.8144Z" fill="currentColor"/></g><defs><clipPath id="clip"><rect width="24" height="24" fill="none"/></clipPath></defs></symbol>
    <symbol id="WhatsApp2" xmlns="http://www.w3.org/2000/svg" width="24" height="24" viewBox="0 0 24 24" fill="none"><g filter="url(#filter0_d_2_9)"><mask id="path-1-inside-1_2_9" fill="currentColor"><path fill-rule="evenodd" clip-rule="evenodd" d="M19.5611 19.0792C16.2813 22.2542 11.4426 22.8268 7.60066 20.8384L1.20135 22.4423L3.012 16.0984C1.14933 12.194 1.87861 7.3764 5.15836 4.20137C9.26675 0.224165 15.8214 0.330507 19.7986 4.4389C23.7758 8.54728 23.6695 15.102 19.5611 19.0792Z"/></mask><path d="M7.60066 20.8384L8.06029 19.9503L7.7244 19.7765L7.35754 19.8684L7.60066 20.8384ZM1.20135 22.4423L0.239752 22.1679L-0.235616 23.8334L1.44447 23.4123L1.20135 22.4423ZM3.012 16.0984L3.9736 16.3729L4.0774 16.0092L3.91455 15.6678L3.012 16.0984ZM7.14102 21.7265C11.3529 23.9064 16.659 23.2804 20.2567 19.7977L18.8656 18.3607C15.9037 21.228 11.5322 21.7472 8.06029 19.9503L7.14102 21.7265ZM1.44447 23.4123L7.84377 21.8084L7.35754 19.8684L0.958236 21.4723L1.44447 23.4123ZM2.0504 15.824L0.239752 22.1679L2.16295 22.7168L3.9736 16.3729L2.0504 15.824ZM4.46282 3.48289C0.865186 6.96565 0.0674031 12.2486 2.10945 16.529L3.91455 15.6678C2.23127 12.1395 2.89204 7.78715 5.85391 4.91986L4.46282 3.48289ZM20.5171 3.74335C16.1558 -0.761844 8.96802 -0.878457 4.46282 3.48289L5.85391 4.91986C9.56549 1.32679 15.4871 1.42286 19.0801 5.13444L20.5171 3.74335ZM20.2567 19.7977C24.7619 15.4363 24.8785 8.24855 20.5171 3.74335L19.0801 5.13444C22.6732 8.84602 22.5771 14.7676 18.8656 18.3607L20.2567 19.7977Z" fill="currentColor" mask="url(#path-1-inside-1_2_9)"/><path d="M16.0012 13.1673V14.3363C16.0016 14.4448 15.9793 14.5522 15.9358 14.6517C15.8922 14.7511 15.8283 14.8404 15.7482 14.9137C15.6681 14.9871 15.5735 15.0429 15.4705 15.0777C15.3675 15.1125 15.2583 15.1254 15.15 15.1156C13.9486 14.9853 12.7945 14.5756 11.7806 13.9194C10.8372 13.3211 10.0374 12.5229 9.438 11.5814C8.77816 10.5649 8.36753 9.40752 8.23938 8.20309C8.22962 8.09533 8.24245 7.98673 8.27705 7.8842C8.31165 7.78167 8.36727 7.68745 8.44036 7.60754C8.51344 7.52763 8.6024 7.46379 8.70156 7.42008C8.80073 7.37636 8.90793 7.35373 9.01633 7.35363H10.1876C10.3771 7.35177 10.5608 7.41873 10.7045 7.54204C10.8481 7.66535 10.942 7.83659 10.9685 8.02384C11.0179 8.39794 11.1096 8.76526 11.2418 9.11878C11.2943 9.25825 11.3057 9.40982 11.2746 9.55554C11.2434 9.70126 11.1711 9.83502 11.0661 9.94096L10.5703 10.4358C11.1261 11.4114 11.9354 12.2191 12.9128 12.7738L13.4087 12.2789C13.5148 12.1741 13.6489 12.1019 13.7949 12.0709C13.9409 12.0398 14.0928 12.0511 14.2325 12.1036C14.5867 12.2355 14.9548 12.327 15.3296 12.3763C15.5193 12.403 15.6925 12.4984 15.8163 12.6442C15.9401 12.7901 16.0059 12.9762 16.0012 13.1673Z" stroke="currentColor" stroke-linecap="round" stroke-linejoin="round"/></g><defs><filter id="filter0_d_2_9" x="-2.79865" y="1.28667" width="29.512" height="29.1557" filterUnits="userSpaceOnUse" color-interpolation-filters="sRGB"><feFlood flood-opacity="0" result="BackgroundImageFix"/><feColorMatrix in="SourceAlpha" type="matrix" values="0 0 0 0 0 0 0 0 0 0 0 0 0 0 0 0 0 0 127 0" result="hardAlpha"/><feOffset dy="4"/><feGaussianBlur stdDeviation="2"/><feComposite in2="hardAlpha" operator="out"/><feColorMatrix type="matrix" values="0 0 0 0 0 0 0 0 0 0 0 0 0 0 0 0 0 0 0.25 0"/><feBlend mode="normal" in2="BackgroundImageFix" result="effect1_dropShadow_2_9"/><feBlend mode="normal" in="SourceGraphic" in2="effect1_dropShadow_2_9" result="shape"/></filter></defs></symbol>
    <symbol id="Visa2" xmlns="http://www.w3.org/2000/svg" width="38" height="24" viewBox="0 0 38 24"><path opacity=".07" enable-background="new" d="M35 0h-32c-1.7 0-3 1.3-3 3v18c0 1.7 1.4 3 3 3h32c1.7 0 3-1.3 3-3v-18c0-1.7-1.4-3-3-3z"/><path fill="#fff" d="M35 1c1.1 0 2 .9 2 2v18c0 1.1-.9 2-2 2h-32c-1.1 0-2-.9-2-2v-18c0-1.1.9-2 2-2h32"/><g fill="#142688"><path d="M28.3 10.1h-.3c-.4 1-.7 1.5-1 3h1.9c-.3-1.5-.3-2.2-.6-3zm2.9 5.9h-1.7000000000000002c-.1 0-.1 0-.2-.1l-.2-.9-.1-.2h-2.4c-.1 0-.2 0-.2.2l-.3.9c0 .1-.1.1-.1.1h-2.1l.2-.5 2.9-6.8c0-.5.3-.7.8-.7h1.5c.1 0 .2 0 .2.2l1.4 6.5c.1.4.2.7.2 1.1.1.1.1.1.1.2zM17.8 15.7l.4-1.8c.1 0 .2.1.2.1.7.3 1.4.5 2.1.4.2 0 .5-.1.7-.2.5-.2.5-.7.1-1.1-.2-.2-.5-.3-.8-.5-.4-.2-.8-.4-1.1-.7-1.2-1-.8-2.4-.1-3.1.6-.4.9-.8 1.7-.8 1.2 0 2.5 0 3.1.2h.1c-.1.6-.2 1.1-.4 1.7-.5-.2-1-.4-1.5-.4-.3 0-.6 0-.9.1-.2 0-.3.1-.4.2-.2.2-.2.5 0 .7l.5.4c.4.2.8.4 1.1.6.5.3 1 .8 1.1 1.4.2.9-.1 1.7-.9 2.3-.5.4-.7.6-1.4.6-1.4 0-2.5.1-3.4-.2-.1.2-.1.2-.2.1zM14.3 16c.1-.7.1-.7.2-1 .5-2.2 1-4.5 1.4-6.7.1-.2.1-.3.3-.3h1.8c-.2 1.2-.4 2.1-.7 3.2-.3 1.5-.6 3-1 4.5 0 .2-.1.2-.3.2"/><path d="M5 8.2c0-.1.2-.2.3-.2h3.4c.5 0 .9.3 1 .8l.9 4.4c0 .1 0 .1.1.2 0-.1.1-.1.1-.1l2.1-5.1c-.1-.1 0-.2.1-.2h2.1c0 .1 0 .1-.1.2l-3.1 7.3c-.1.2-.1.3-.2.4-.1.1-.3 0-.5 0h-1.5c-.1 0-.2 0-.2-.2l-1.6-6.2c-.2-.2-.5-.5-.9-.6-.6-.3-1.7-.5-1.9-.5l-.1-.2z"/></g></symbol>
    <symbol id="MasterCard2" xmlns="http://www.w3.org/2000/svg" width="38" height="24" viewBox="0 0 38 24"><path opacity=".07" enable-background="new" d="M35 0h-32c-1.7 0-3 1.3-3 3v18c0 1.7 1.4 3 3 3h32c1.7 0 3-1.3 3-3v-18c0-1.7-1.4-3-3-3z"/><path fill="#fff" d="M35 1c1.1 0 2 .9 2 2v18c0 1.1-.9 2-2 2h-32c-1.1 0-2-.9-2-2v-18c0-1.1.9-2 2-2h32"/><circle fill="#CE4549" cx="15" cy="12" r="7"/><circle fill="#FFAA2E" cx="23" cy="12" r="7"/><path fill="#f73" d="M22 12c0-2.4-1.2-4.5-3-5.7-1.8 1.3-3 3.4-3 5.7s1.2 4.5 3 5.7c1.8-1.2 3-3.3 3-5.7z"/><path fill="#fff" d="M12 11h14v2h-14z"/></symbol>
    <symbol id="SecurityBadge" xmlns="http://www.w3.org/2000/svg" width="160" height="46" viewBox="0 0 160 46" fill="none"><rect width="160" height="45.0002" transform="translate(0 0.0078125)" fill="#B92C38"/><path d="M0 4.96937V9.43905C0 21.8619 0.0223932 30.4411 6.89279 37.664C9.53919 40.4474 16 45.008 16 45.008V0.826172C9.28 0.826172 2.56 3.98322 0 4.96937Z" fill="#C0BFD6"/><path d="M32.8 4.91247C29.44 3.86902 23.056 0.826172 16 0.826172V45.008C16 45.008 22.8141 40.4505 25.5962 37.6634C32.8235 30.4232 32.8 22.8195 32.8 11.0958V4.91247Z" fill="#9499B3"/><path d="M32.7967 6.55327V3.03939C32.7967 1.77509 31.1337 0.0078125 29.6479 0.0078125H2.87326C1.3907 0.0078125 0 1.77509 0 3.03939V6.55327H32.8H32.7967Z" fill="#F5F5FB"/><path d="M42.9921 37.4758C43.6761 37.4758 44.2479 37.2817 44.7075 36.8935C45.1726 36.4997 45.4243 35.9923 45.4626 35.3711H46.4065C46.3791 35.9202 46.2095 36.4221 45.8976 36.8769C45.5857 37.3261 45.1699 37.6783 44.6501 37.9334C44.1357 38.1885 43.5831 38.3161 42.9921 38.3161C41.8266 38.3161 40.9019 37.9057 40.2179 37.0849C39.5394 36.264 39.2002 35.1604 39.2002 33.7739V33.4744C39.2002 32.587 39.3534 31.8022 39.6598 31.1201C39.9662 30.4379 40.404 29.911 40.973 29.5394C41.5476 29.1679 42.2179 28.9821 42.9839 28.9821C43.9579 28.9821 44.7595 29.276 45.3888 29.8639C46.0235 30.4518 46.3627 31.2254 46.4065 32.1849H45.4626C45.4188 31.4806 45.1671 30.9121 44.7075 30.4795C44.2534 30.0469 43.6788 29.8306 42.9839 29.8306C42.0975 29.8306 41.408 30.1551 40.9156 30.8039C40.4286 31.4528 40.1851 32.3624 40.1851 33.5326V33.8238C40.1851 34.9718 40.4286 35.8675 40.9156 36.5108C41.408 37.1542 42.1002 37.4758 42.9921 37.4758Z" fill="white"/><path d="M49.353 30.6708C49.6759 30.1329 50.089 29.7169 50.5924 29.423C51.0958 29.129 51.6457 28.9821 52.2421 28.9821C53.1942 28.9821 53.9028 29.2538 54.3679 29.7973C54.833 30.3408 55.0683 31.1561 55.0738 32.2431V38.1497H54.0971V32.2348C54.0916 31.4306 53.922 30.8317 53.5882 30.4379C53.2599 30.0441 52.7319 29.8472 52.0041 29.8472C51.3967 29.8472 50.8578 30.0414 50.3872 30.4296C49.9221 30.8123 49.5774 31.3308 49.353 31.9853V38.1497H48.3763V25.3716H49.353V30.6708Z" fill="white"/><path d="M61.0407 38.3161C60.2856 38.3161 59.6016 38.1275 58.9888 37.7504C58.3814 37.3732 57.9081 36.8491 57.5689 36.1781C57.2296 35.5015 57.06 34.7444 57.06 33.907V33.5492C57.06 32.6841 57.2242 31.9048 57.5525 31.2116C57.8862 30.5183 58.3486 29.9748 58.9396 29.581C59.5305 29.1817 60.1707 28.9821 60.8601 28.9821C61.9381 28.9821 62.7917 29.3564 63.4209 30.1051C64.0557 30.8483 64.373 31.866 64.373 33.1582V33.7156H58.0367V33.907C58.0367 34.9274 58.324 35.7788 58.8985 36.4609C59.4785 37.1375 60.2063 37.4758 61.0818 37.4758C61.607 37.4758 62.0694 37.3788 62.4688 37.1847C62.8738 36.9906 63.2404 36.68 63.5687 36.2529L64.1842 36.7271C63.462 37.7864 62.4141 38.3161 61.0407 38.3161ZM60.8601 29.8306C60.1215 29.8306 59.4977 30.1051 58.9888 30.6542C58.4854 31.2033 58.179 31.9409 58.0696 32.8671H63.3963V32.7589C63.3689 31.8937 63.1255 31.1894 62.6658 30.6459C62.2062 30.1024 61.6043 29.8306 60.8601 29.8306Z" fill="white"/><path d="M69.5685 37.4758C70.2524 37.4758 70.8242 37.2817 71.2838 36.8935C71.7489 36.4997 72.0006 35.9923 72.039 35.3711H72.9828C72.9555 35.9202 72.7858 36.4221 72.474 36.8769C72.1621 37.3261 71.7462 37.6783 71.2264 37.9334C70.712 38.1885 70.1594 38.3161 69.5685 38.3161C68.403 38.3161 67.4782 37.9057 66.7943 37.0849C66.1158 36.264 65.7765 35.1604 65.7765 33.7739V33.4744C65.7765 32.587 65.9297 31.8022 66.2362 31.1201C66.5426 30.4379 66.9803 29.911 67.5494 29.5394C68.1239 29.1679 68.7942 28.9821 69.5602 28.9821C70.5342 28.9821 71.3358 29.276 71.9651 29.8639C72.5998 30.4518 72.9391 31.2254 72.9828 32.1849H72.039C71.9952 31.4806 71.7435 30.9121 71.2838 30.4795C70.8297 30.0469 70.2552 29.8306 69.5602 29.8306C68.6738 29.8306 67.9844 30.1551 67.4919 30.8039C67.0049 31.4528 66.7614 32.3624 66.7614 33.5326V33.8238C66.7614 34.9718 67.0049 35.8675 67.4919 36.5108C67.9844 37.1542 68.6766 37.4758 69.5685 37.4758Z" fill="white"/><path d="M77.062 33.6158L75.9376 34.7139V38.1497H74.9527V25.3716H75.9376V33.5492L76.865 32.5343L80.263 29.1484H81.5024L77.7351 32.9419L81.8307 38.1497H80.657L77.062 33.6158Z" fill="white"/><path d="M82.6514 33.516C82.6514 32.6508 82.8156 31.8716 83.1439 31.1783C83.4777 30.485 83.9455 29.9471 84.5474 29.5644C85.1548 29.1762 85.8415 28.9821 86.6075 28.9821C87.7894 28.9821 88.747 29.4036 89.4802 30.2466C90.2134 31.084 90.58 32.196 90.58 33.5825V33.7905C90.58 34.6612 90.4131 35.446 90.0793 36.1448C89.751 36.8381 89.2859 37.3732 88.684 37.7504C88.0821 38.1275 87.3954 38.3161 86.6239 38.3161C85.4475 38.3161 84.4899 37.8973 83.7512 37.0599C83.018 36.2169 82.6514 35.1021 82.6514 33.7156V33.516ZM83.6363 33.7905C83.6363 34.8664 83.9099 35.751 84.4571 36.4443C85.0098 37.132 85.732 37.4758 86.6239 37.4758C87.5103 37.4758 88.2271 37.132 88.7743 36.4443C89.327 35.751 89.6033 34.8387 89.6033 33.7073V33.516C89.6033 32.8283 89.4774 32.1988 89.2257 31.6275C88.974 31.0563 88.6211 30.6154 88.167 30.3048C87.7128 29.9887 87.193 29.8306 86.6075 29.8306C85.732 29.8306 85.018 30.18 84.4653 30.8788C83.9127 31.5721 83.6363 32.4816 83.6363 33.6075V33.7905Z" fill="white"/><path d="M98.328 37.01C97.7371 37.8807 96.7932 38.3161 95.4964 38.3161C94.5498 38.3161 93.8302 38.0388 93.3378 37.4842C92.8453 36.924 92.5936 36.0977 92.5827 35.0051V29.1484H93.5594V34.8803C93.5594 36.594 94.2433 37.4509 95.6113 37.4509C97.0339 37.4509 97.934 36.8547 98.3116 35.6623V29.1484H99.2965V38.1497H98.3444L98.328 37.01Z" fill="white"/><path d="M103.384 26.8441V29.1484H105.222V29.9637H103.384V35.9618C103.384 36.4609 103.471 36.8325 103.647 37.0765C103.827 37.3206 104.125 37.4426 104.541 37.4426C104.705 37.4426 104.971 37.4148 105.337 37.3594L105.378 38.1747C105.121 38.2689 104.771 38.3161 104.328 38.3161C103.655 38.3161 103.165 38.1192 102.859 37.7254C102.552 37.3261 102.399 36.741 102.399 35.9701V29.9637H100.766V29.1484H102.399V26.8441H103.384Z" fill="white"/><path d="M116.664 35.8619C116.664 35.3683 116.467 34.9718 116.073 34.6723C115.684 34.3728 115.096 34.1399 114.308 33.9735C113.52 33.8016 112.908 33.6075 112.47 33.3912C112.037 33.1693 111.715 32.9004 111.501 32.5842C111.293 32.2681 111.189 31.8854 111.189 31.4362C111.189 30.7263 111.482 30.1412 112.068 29.6809C112.653 29.215 113.403 28.9821 114.316 28.9821C115.307 28.9821 116.1 29.2316 116.697 29.7308C117.299 30.2244 117.6 30.8705 117.6 31.6691H116.615C116.615 31.1423 116.396 30.7041 115.958 30.3547C115.526 30.0053 114.979 29.8306 114.316 29.8306C113.671 29.8306 113.151 29.9776 112.757 30.2715C112.369 30.5599 112.174 30.937 112.174 31.4029C112.174 31.8521 112.336 32.2015 112.659 32.4511C112.987 32.6951 113.581 32.9198 114.44 33.125C115.304 33.3302 115.95 33.5492 116.377 33.7822C116.809 34.0151 117.129 34.2952 117.337 34.6224C117.545 34.9496 117.649 35.3462 117.649 35.812C117.649 36.5718 117.345 37.1791 116.738 37.6339C116.136 38.0887 115.348 38.3161 114.374 38.3161C113.34 38.3161 112.5 38.0637 111.854 37.559C111.214 37.0488 110.894 36.4055 110.894 35.629H111.879C111.917 36.2113 112.158 36.6661 112.601 36.9933C113.05 37.315 113.641 37.4758 114.374 37.4758C115.058 37.4758 115.611 37.3233 116.032 37.0183C116.453 36.7133 116.664 36.3278 116.664 35.8619Z" fill="white"/><path d="M123.304 38.3161C122.549 38.3161 121.865 38.1275 121.252 37.7504C120.645 37.3732 120.171 36.8491 119.832 36.1781C119.493 35.5015 119.323 34.7444 119.323 33.907V33.5492C119.323 32.6841 119.487 31.9048 119.816 31.2116C120.149 30.5183 120.612 29.9748 121.203 29.581C121.794 29.1817 122.434 28.9821 123.123 28.9821C124.201 28.9821 125.055 29.3564 125.684 30.1051C126.319 30.8483 126.636 31.866 126.636 33.1582V33.7156H120.3V33.907C120.3 34.9274 120.587 35.7788 121.162 36.4609C121.742 37.1375 122.469 37.4758 123.345 37.4758C123.87 37.4758 124.333 37.3788 124.732 37.1847C125.137 36.9906 125.503 36.68 125.832 36.2529L126.447 36.7271C125.725 37.7864 124.677 38.3161 123.304 38.3161ZM123.123 29.8306C122.385 29.8306 121.761 30.1051 121.252 30.6542C120.749 31.2033 120.442 31.9409 120.333 32.8671H125.659V32.7589C125.632 31.8937 125.389 31.1894 124.929 30.6459C124.469 30.1024 123.867 29.8306 123.123 29.8306Z" fill="white"/><path d="M128.155 33.5659C128.155 32.1572 128.461 31.0424 129.074 30.2216C129.692 29.3952 130.529 28.9821 131.585 28.9821C132.795 28.9821 133.714 29.4701 134.343 30.4462L134.392 29.1484H135.312V37.9667C135.312 39.1258 134.992 40.0437 134.351 40.7203C133.711 41.3969 132.844 41.7352 131.75 41.7352C131.131 41.7352 130.54 41.5938 129.977 41.3109C129.419 41.0336 128.978 40.6621 128.655 40.1962L129.205 39.5972C129.9 40.4624 130.726 40.895 131.684 40.895C132.505 40.895 133.145 40.6482 133.604 40.1546C134.064 39.6665 134.302 38.9871 134.318 38.1164V36.985C133.689 37.8724 132.773 38.3161 131.569 38.3161C130.54 38.3161 129.714 37.9001 129.09 37.0682C128.466 36.2363 128.155 35.1132 128.155 33.699V33.5659ZM129.148 33.7406C129.148 34.8886 129.375 35.7954 129.829 36.4609C130.283 37.1209 130.923 37.4509 131.75 37.4509C132.959 37.4509 133.815 36.9018 134.318 35.8037V31.6192C134.089 31.0424 133.758 30.6043 133.325 30.3048C132.893 29.9998 132.373 29.8472 131.766 29.8472C130.94 29.8472 130.297 30.1772 129.837 30.8372C129.378 31.4917 129.148 32.4594 129.148 33.7406Z" fill="white"/><path d="M143.585 37.01C142.994 37.8807 142.05 38.3161 140.753 38.3161C139.807 38.3161 139.087 38.0388 138.595 37.4842C138.102 36.924 137.851 36.0977 137.84 35.0051V29.1484H138.816V34.8803C138.816 36.594 139.5 37.4509 140.868 37.4509C142.291 37.4509 143.191 36.8547 143.569 35.6623V29.1484H144.553V38.1497H143.601L143.585 37.01Z" fill="white"/><path d="M151.218 29.997C151.01 29.9582 150.788 29.9388 150.553 29.9388C149.94 29.9388 149.421 30.1135 148.994 30.4629C148.572 30.8067 148.271 31.3086 148.091 31.9686V38.1497H147.114V29.1484H148.075L148.091 30.5793C148.611 29.5145 149.445 28.9821 150.594 28.9821C150.868 28.9821 151.084 29.0181 151.243 29.0902L151.218 29.997Z" fill="white"/><path d="M152.072 33.516C152.072 32.6508 152.236 31.8716 152.564 31.1783C152.898 30.485 153.366 29.9471 153.968 29.5644C154.575 29.1762 155.262 28.9821 156.028 28.9821C157.21 28.9821 158.167 29.4036 158.9 30.2466C159.634 31.084 160 32.196 160 33.5825V33.7905C160 34.6612 159.833 35.446 159.5 36.1448C159.171 36.8381 158.706 37.3732 158.104 37.7504C157.502 38.1275 156.816 38.3161 156.044 38.3161C154.868 38.3161 153.91 37.8973 153.171 37.0599C152.438 36.2169 152.072 35.1021 152.072 33.7156V33.516ZM153.057 33.7905C153.057 34.8664 153.33 35.751 153.877 36.4443C154.43 37.132 155.152 37.4758 156.044 37.4758C156.931 37.4758 157.647 37.132 158.195 36.4443C158.747 35.751 159.023 34.8387 159.023 33.7073V33.516C159.023 32.8283 158.898 32.1988 158.646 31.6275C158.394 31.0563 158.041 30.6154 157.587 30.3048C157.133 29.9887 156.613 29.8306 156.028 29.8306C155.152 29.8306 154.438 30.18 153.886 30.8788C153.333 31.5721 153.057 32.4816 153.057 33.6075V33.7905Z" fill="white"/><path d="M45.4125 15.8935C45.4125 15.4888 45.2421 15.1807 44.9012 14.969C44.5666 14.7573 44.0078 14.5705 43.225 14.4087C42.4421 14.2468 41.7887 14.0413 41.2647 13.7923C40.1156 13.2444 39.5411 12.4506 39.5411 11.4109C39.5411 10.5393 39.9136 9.81086 40.6586 9.22563C41.4036 8.6404 42.3506 8.34778 43.4996 8.34778C44.7244 8.34778 45.7124 8.64662 46.4637 9.24431C47.2213 9.84199 47.6001 10.6171 47.6001 11.5697H45.2989C45.2989 11.1339 45.1348 10.7728 44.8065 10.4864C44.4782 10.1938 44.0425 10.0474 43.4996 10.0474C42.9945 10.0474 42.581 10.1626 42.259 10.393C41.9434 10.6233 41.7855 10.9315 41.7855 11.3175C41.7855 11.6662 41.9339 11.937 42.2306 12.13C42.5273 12.323 43.1271 12.5191 44.0299 12.7183C44.9327 12.9113 45.6398 13.1448 46.1512 13.4187C46.6689 13.6865 47.0509 14.0102 47.2971 14.39C47.5496 14.7698 47.6759 15.2305 47.6759 15.7721C47.6759 16.6811 47.2939 17.4189 46.53 17.9854C45.7661 18.5457 44.7654 18.8259 43.528 18.8259C42.6883 18.8259 41.9402 18.6765 41.2836 18.3776C40.627 18.0788 40.1156 17.6679 39.7495 17.1449C39.3833 16.622 39.2002 16.0585 39.2002 15.4546H41.4351C41.4667 15.99 41.6719 16.404 42.0507 16.6967C42.4295 16.9831 42.9314 17.1262 43.5564 17.1262C44.1625 17.1262 44.6234 17.0142 44.939 16.79C45.2547 16.5597 45.4125 16.2609 45.4125 15.8935Z" fill="white"/><path d="M52.1363 18.6391H49.8351V8.53456H52.1363V18.6391ZM49.693 5.91036C49.693 5.56171 49.8035 5.27221 50.0245 5.04185C50.2517 4.81149 50.5737 4.69632 50.9904 4.69632C51.4071 4.69632 51.7291 4.81149 51.9564 5.04185C52.1836 5.27221 52.2973 5.56171 52.2973 5.91036C52.2973 6.25278 52.1836 6.53917 51.9564 6.76953C51.7291 6.99366 51.4071 7.10572 50.9904 7.10572C50.5737 7.10572 50.2517 6.99366 50.0245 6.76953C49.8035 6.53917 49.693 6.25278 49.693 5.91036Z" fill="white"/><path d="M57.5342 6.07846V8.53456H59.343V10.2155H57.5342V15.8562C57.5342 16.2422 57.61 16.5223 57.7615 16.6967C57.9193 16.8648 58.1971 16.9488 58.5949 16.9488C58.86 16.9488 59.1283 16.9177 59.3998 16.8554V18.6111C58.8758 18.7543 58.3707 18.8259 57.8846 18.8259C56.1169 18.8259 55.233 17.864 55.233 15.9402V10.2155H53.5473V8.53456H55.233V6.07846H57.5342Z" fill="white"/><path d="M65.6216 18.8259C64.1633 18.8259 62.9795 18.3745 62.0704 17.4718C61.1676 16.5628 60.7162 15.355 60.7162 13.8483V13.5682C60.7162 12.5596 60.9119 11.6599 61.3033 10.8693C61.701 10.0723 62.2566 9.45287 62.97 9.01084C63.6834 8.5688 64.4789 8.34778 65.3565 8.34778C66.7517 8.34778 67.8282 8.78671 68.5858 9.66455C69.3497 10.5424 69.7316 11.7845 69.7316 13.3907V14.3059H63.0363C63.1058 15.1402 63.3867 15.8001 63.8792 16.2858C64.3779 16.7714 65.0029 17.0142 65.7542 17.0142C66.8086 17.0142 67.6672 16.5939 68.3301 15.7534L69.5707 16.9208C69.1603 17.5247 68.611 17.9948 67.9229 18.331C67.241 18.6609 66.4739 18.8259 65.6216 18.8259ZM65.347 10.1688C64.7157 10.1688 64.2043 10.3868 63.8129 10.8226C63.4277 11.2584 63.1815 11.8654 63.0742 12.6436H67.4588V12.4755C67.4083 11.716 67.2031 11.1432 66.8433 10.7572C66.4834 10.365 65.9847 10.1688 65.347 10.1688Z" fill="white"/><path d="M79.9688 15.7628L82.1374 8.53456H84.5144L80.9631 18.6391H78.9649L75.3853 8.53456H77.7717L79.9688 15.7628Z" fill="white"/><path d="M90.3385 18.8259C88.8801 18.8259 87.6963 18.3745 86.7872 17.4718C85.8844 16.5628 85.433 15.355 85.433 13.8483V13.5682C85.433 12.5596 85.6287 11.6599 86.0201 10.8693C86.4179 10.0723 86.9735 9.45287 87.6869 9.01084C88.4003 8.5688 89.1958 8.34778 90.0733 8.34778C91.4686 8.34778 92.545 8.78671 93.3026 9.66455C94.0665 10.5424 94.4485 11.7845 94.4485 13.3907V14.3059H87.7532C87.8226 15.1402 88.1035 15.8001 88.596 16.2858C89.0947 16.7714 89.7198 17.0142 90.4711 17.0142C91.5254 17.0142 92.384 16.5939 93.0469 15.7534L94.2875 16.9208C93.8771 17.5247 93.3279 17.9948 92.6397 18.331C91.9579 18.6609 91.1908 18.8259 90.3385 18.8259ZM90.0639 10.1688C89.4325 10.1688 88.9211 10.3868 88.5297 10.8226C88.1446 11.2584 87.8984 11.8654 87.791 12.6436H92.1757V12.4755C92.1252 11.716 91.92 11.1432 91.5601 10.7572C91.2003 10.365 90.7015 10.1688 90.0639 10.1688Z" fill="white"/><path d="M101.608 10.6078C101.305 10.558 100.992 10.5331 100.67 10.5331C99.616 10.5331 98.9057 10.9315 98.5395 11.7284V18.6391H96.2383V8.53456H98.4354L98.4922 9.66455C99.0478 8.78671 99.818 8.34778 100.803 8.34778C101.131 8.34778 101.403 8.39136 101.617 8.47853L101.608 10.6078Z" fill="white"/><path d="M105.51 18.6391H103.208V8.53456H105.51V18.6391ZM103.066 5.91036C103.066 5.56171 103.177 5.27221 103.398 5.04185C103.625 4.81149 103.947 4.69632 104.364 4.69632C104.78 4.69632 105.102 4.81149 105.33 5.04185C105.557 5.27221 105.67 5.56171 105.67 5.91036C105.67 6.25278 105.557 6.53917 105.33 6.76953C105.102 6.99366 104.78 7.10572 104.364 7.10572C103.947 7.10572 103.625 6.99366 103.398 6.76953C103.177 6.53917 103.066 6.25278 103.066 5.91036Z" fill="white"/><path d="M108.635 18.6391V10.2155H107.072V8.53456H108.635V7.84349C108.641 7.0528 108.811 6.37418 109.146 5.80763C109.481 5.24108 109.954 4.81461 110.567 4.52822C111.179 4.24183 111.914 4.09863 112.773 4.09863C113.278 4.09863 113.761 4.15155 114.222 4.25739C114.689 4.36323 115.172 4.49709 115.671 4.65896L115.32 6.53606C114.449 6.23722 113.654 6.0878 112.934 6.0878C112.233 6.0878 111.725 6.24033 111.409 6.5454C111.094 6.84424 110.936 7.29561 110.936 7.89952V8.53456H112.953V10.2155H110.936V18.6391H108.635ZM116.76 18.6391H114.459V8.53456H116.76V18.6391Z" fill="white"/><path d="M123.522 17.0142C124.096 17.0142 124.573 16.8492 124.952 16.5192C125.33 16.1893 125.532 15.7815 125.558 15.2958H127.726C127.701 15.9247 127.502 16.513 127.13 17.0609C126.757 17.6025 126.252 18.0321 125.614 18.3496C124.977 18.6671 124.289 18.8259 123.55 18.8259C122.117 18.8259 120.98 18.3683 120.141 17.4531C119.301 16.5379 118.881 15.2741 118.881 13.6616V13.4281C118.881 11.8903 119.298 10.6607 120.131 9.73926C120.965 8.81161 122.101 8.34778 123.54 8.34778C124.759 8.34778 125.75 8.69954 126.514 9.40307C127.284 10.1004 127.688 11.0187 127.726 12.158H125.558C125.532 11.579 125.33 11.1027 124.952 10.7292C124.579 10.3556 124.102 10.1688 123.522 10.1688C122.777 10.1688 122.202 10.4366 121.798 10.972C121.394 11.5012 121.189 12.3074 121.182 13.3907V13.7549C121.182 14.8507 121.381 15.6694 121.779 16.211C122.183 16.7465 122.764 17.0142 123.522 17.0142Z" fill="white"/><path d="M135.586 18.6391C135.485 18.4461 135.397 18.1317 135.321 17.6959C134.589 18.4492 133.692 18.8259 132.632 18.8259C131.603 18.8259 130.763 18.5364 130.113 17.9574C129.462 17.3784 129.137 16.6624 129.137 15.8095C129.137 14.7324 129.541 13.9075 130.349 13.3347C131.164 12.7557 132.326 12.4662 133.834 12.4662H135.245V11.8031C135.245 11.2802 135.097 10.863 134.8 10.5517C134.504 10.2342 134.052 10.0755 133.446 10.0755C132.922 10.0755 132.493 10.2062 132.158 10.4677C131.824 10.7229 131.656 11.0498 131.656 11.4483H129.355C129.355 10.8942 129.541 10.3774 129.914 9.89802C130.286 9.41241 130.791 9.03263 131.429 8.75869C132.073 8.48475 132.79 8.34778 133.579 8.34778C134.778 8.34778 135.735 8.64662 136.448 9.24431C137.162 9.83576 137.528 10.67 137.547 11.7471V16.3044C137.547 17.2134 137.676 17.9387 137.935 18.4804V18.6391H135.586ZM133.058 17.0048C133.512 17.0048 133.939 16.8959 134.336 16.678C134.74 16.4601 135.043 16.1675 135.245 15.8001V13.895H134.005C133.153 13.895 132.512 14.0413 132.082 14.3339C131.653 14.6266 131.439 15.0406 131.439 15.576C131.439 16.0118 131.584 16.3605 131.874 16.622C132.171 16.8772 132.565 17.0048 133.058 17.0048Z" fill="white"/><path d="M139.526 13.5121C139.526 11.9557 139.892 10.7074 140.624 9.76728C141.357 8.82095 142.339 8.34778 143.57 8.34778C144.656 8.34778 145.533 8.72133 146.202 9.46844V4.29475H148.504V18.6391H146.42L146.306 17.5932C145.618 18.415 144.7 18.8259 143.551 18.8259C142.351 18.8259 141.379 18.3496 140.634 17.3971C139.895 16.4445 139.526 15.1495 139.526 13.5121ZM141.827 13.7082C141.827 14.7355 142.026 15.5387 142.424 16.1177C142.828 16.6904 143.399 16.9768 144.138 16.9768C145.079 16.9768 145.767 16.5628 146.202 15.7348V11.4202C145.779 10.6109 145.097 10.2062 144.157 10.2062C143.412 10.2062 142.837 10.4988 142.433 11.084C142.029 11.6631 141.827 12.5378 141.827 13.7082Z" fill="white"/><path d="M150.473 13.4935C150.473 12.5035 150.672 11.6132 151.07 10.8226C151.468 10.0257 152.026 9.41552 152.746 8.99216C153.466 8.56257 154.293 8.34778 155.227 8.34778C156.61 8.34778 157.731 8.78671 158.589 9.66455C159.454 10.5424 159.921 11.7066 159.991 13.1573L160 13.6896C160 14.6857 159.804 15.576 159.413 16.3605C159.028 17.1449 158.472 17.7519 157.746 18.1815C157.027 18.6111 156.193 18.8259 155.246 18.8259C153.8 18.8259 152.642 18.3527 151.771 17.4064C150.906 16.4539 150.473 15.1869 150.473 13.6055V13.4935ZM152.775 13.6896C152.775 14.7293 152.992 15.5449 153.428 16.1363C153.864 16.7216 154.47 17.0142 155.246 17.0142C156.023 17.0142 156.626 16.7153 157.055 16.1177C157.491 15.52 157.708 14.6452 157.708 13.4935C157.708 12.4724 157.484 11.6631 157.036 11.0654C156.594 10.4677 155.991 10.1688 155.227 10.1688C154.476 10.1688 153.879 10.4646 153.437 11.056C152.996 11.6413 152.775 12.5191 152.775 13.6896Z" fill="white"/></symbol>
	<symbol id="LogoVnda" xmlns="http://www.w3.org/2000/svg" width="105" height="28" viewBox="0 0 105 28" fill="none"><path d="M100.886 27.0937C102.064 27.0937 103.044 26.7105 103.826 25.938C104.607 25.1686 105 24.1952 105 23.0148C105 21.8128 104.617 20.8363 103.847 20.0916C103.078 19.3469 102.092 18.973 100.889 18.973C99.7118 18.973 98.729 19.3469 97.9471 20.0916C97.1651 20.8363 96.7726 21.8128 96.7726 23.0148C96.7726 24.1921 97.1713 25.1686 97.9625 25.938C98.7568 26.7105 99.7304 27.0937 100.886 27.0937ZM84.144 22.7645C83.3497 22.7645 82.7254 22.5853 82.268 22.2237C81.8106 21.8622 81.5818 21.3832 81.5818 20.7807C81.5818 19.4581 82.5801 18.7969 84.5767 18.7969H87.5345V20.4933C87.2687 21.2411 86.836 21.8035 86.2364 22.1898C85.6368 22.5729 84.9383 22.7645 84.144 22.7645ZM84.3975 6.89084C82.8336 6.89084 81.2759 7.08861 79.7243 7.48722C78.1728 7.88584 76.8562 8.44515 75.7744 9.16513L78.0832 13.8188C78.757 13.2904 79.576 12.8763 80.5372 12.5735C81.4984 12.2737 82.4503 12.1223 83.3868 12.1223C86.0324 12.1223 87.4171 13.1575 87.5345 15.2247H83.6372C80.6794 15.2247 78.4911 15.7346 77.0694 16.7574C75.6508 17.7802 74.94 19.2171 74.94 21.0681C74.94 22.2206 75.2212 23.2496 75.7868 24.1519C76.3524 25.0542 77.1869 25.7711 78.2934 26.2995C79.3998 26.8279 80.7103 27.0937 82.2247 27.0937C85.0867 27.0937 87.0122 26.145 87.9981 24.2446V26.7692H94.3835V15.9107C94.3835 12.8578 93.5305 10.5896 91.8213 9.10951C90.1214 7.63246 87.6427 6.89084 84.3975 6.89084ZM62.2774 21.6459C61.0751 21.6459 60.0892 21.2318 59.3196 20.4006C58.55 19.5725 58.1668 18.423 58.1668 16.9552C58.1668 15.5121 58.55 14.3812 59.3196 13.5654C60.0892 12.7465 61.0751 12.3386 62.2774 12.3386C63.4797 12.3386 64.4594 12.7465 65.2197 13.5654C65.977 14.3842 66.3571 15.5121 66.3571 16.9552C66.3571 18.423 65.9739 19.5725 65.2043 20.4006C64.4316 21.2318 63.458 21.6459 62.2774 21.6459ZM66.2458 0.00308837V8.91484C64.9694 7.56757 63.1675 6.89393 60.834 6.89393C59.0538 6.89393 57.4312 7.30182 55.9631 8.12069C54.495 8.93956 53.336 10.1107 52.483 11.6372C51.6269 13.1637 51.2004 14.9374 51.2004 16.9583C51.2004 18.9792 51.6269 20.7591 52.483 22.2979C53.336 23.8368 54.4981 25.0203 55.9631 25.8515C57.4281 26.6827 59.0538 27.0968 60.834 27.0968C63.3839 27.0968 65.2939 26.3397 66.5704 24.8225V26.7692H73.101V0L66.2458 0.00308837ZM41.0969 6.89084C39.8452 6.89084 38.6923 7.10097 37.6322 7.52121C36.5721 7.94146 35.6604 8.55021 34.8908 9.34126V7.21221H28.3602V26.7661H35.2153V17.3136C35.2153 15.7748 35.5707 14.6222 36.2785 13.8497C36.9894 13.0802 37.932 12.694 39.1127 12.694C41.2545 12.694 42.3239 14.0289 42.3239 16.6987V26.763H49.1791V15.5801C49.1791 12.6693 48.4404 10.4939 46.9599 9.0508C45.4826 7.61392 43.5262 6.89084 41.0969 6.89084ZM21.5761 1.51722L14.5757 17.9687L7.72054 1.51722H0L10.7896 26.7692H17.8271L28.6507 1.51722H21.5761Z" fill="#B92C38"/></ssymbol>
</svg>